<?xml version="1.0" standalone="no"?><!DOCTYPE svg PUBLIC "-//W3C//DTD SVG 1.1//EN" "http://www.w3.org/Graphics/SVG/1.1/DTD/svg11.dtd"><svg t="1631694674529" class="icon" viewBox="0 0 1024 1024" version="1.1" xmlns="http://www.w3.org/2000/svg" p-id="2488" xmlns:xlink="http://www.w3.org/1999/xlink" width="48" height="48"><defs><style type="text/css"></style></defs><path d="M391.1 374.7h-0.1c-3.7-0.1-6.7-3.1-6.6-6.9 1.5-84.8 17-146.3 29.7-182.9 13.9-40 27.5-59.8 28.1-60.6 2.1-3.1 6.4-3.8 9.4-1.7 3.1 2.1 3.8 6.3 1.7 9.4-0.2 0.3-13.3 19.5-26.6 58-12.3 35.6-27.3 95.3-28.7 178-0.2 3.7-3.2 6.7-6.9 6.7zM354.6 254.8c-0.4 0-0.8 0-1.2-0.1-3.7-0.6-6.2-4.1-5.5-7.8 15.4-89.4 44.1-121.9 45.3-123.3 2.5-2.8 6.8-3 9.6-0.5s3 6.8 0.5 9.5c-0.5 0.5-27.5 31.9-42 116.5-0.6 3.4-3.4 5.7-6.7 5.7zM634.4 377.1c-3.6 0-6.5-2.8-6.8-6.4-7.6-134-52.8-238.8-53.2-239.9-1.5-3.4 0.1-7.4 3.5-8.9s7.4 0.1 8.9 3.5c0.5 1.1 46.6 108 54.3 244.5 0.2 3.7-2.6 6.9-6.4 7.1 0 0.1-0.1 0.1-0.3 0.1zM670.2 254.8c-3.2 0-6-2.2-6.6-5.4-16.7-82.6-41.7-116.8-41.9-117.1-2.2-3-1.6-7.2 1.3-9.5 3-2.2 7.2-1.7 9.5 1.3 1.1 1.4 27 36.5 44.4 122.6 0.7 3.7-1.6 7.2-5.3 8-0.5 0.1-1 0.1-1.4 0.1z" fill="#dbdbdb" p-id="2489" data-spm-anchor-id="a313x.7781069.0.i32" class="selected"></path><path d="M673.1 124.6V74.1c0-5.3-4.3-9.7-9.7-9.7H360.5c-5.3 0-9.7 4.3-9.7 9.7v50.6c-16.9 21.7-96 155.2-96 755.3 0 2.6 1 5 2.8 6.8 0.8 0.8 18.9 18.6 59.7 36.3 36.9 16 100.6 35 194.7 35 43.1 0 108.8-9.6 111.6-10 4.3-0.6 7.7-4.1 8.2-8.5L649 787.8l26.7 135.3c0.6 3 2.6 5.6 5.4 6.9 2.8 1.3 6.1 1.2 8.8-0.3l74.3-41.3c3.1-1.7 5-4.9 5-8.4-0.1-600.2-79.2-733.7-96.1-755.4zM370.2 83.7h283.6v34.8H370.2V83.7z m321.9 822.6l-36.2-183.6c-0.9-4.7-5.1-8-9.9-7.8-4.8 0.2-8.7 3.8-9.2 8.6L613.5 930c-18.5 2.5-67.9 8.8-101.4 8.8-90 0-150.7-17.9-185.7-32.9-29.1-12.5-45.9-25-52.1-30.2 0.2-332.1 25.2-515.3 46.2-610.6 19-86.2 38.3-118.4 44.7-127.2h293.7c6.4 8.8 25.7 41 44.7 127.2 21 95.2 46 278 46.2 609.2l-57.7 32z" p-id="2490"></path></svg>
