<?xml version="1.0" standalone="no"?><!DOCTYPE svg PUBLIC "-//W3C//DTD SVG 1.1//EN" "http://www.w3.org/Graphics/SVG/1.1/DTD/svg11.dtd"><svg t="1631695217115" class="icon" viewBox="0 0 1024 1024" version="1.1" xmlns="http://www.w3.org/2000/svg" p-id="3524" xmlns:xlink="http://www.w3.org/1999/xlink" width="48" height="48"><defs><style type="text/css"></style></defs><path d="M414.1 791.7h-78.2c-19.9 0-36-16.1-36-36v-131h150.2v131c0 19.8-16.1 36-36 36zM687.7 791.7h-78.2c-19.9 0-36-16.1-36-36v-131h150.2v131c0 19.8-16.1 36-36 36z" fill="#dbdbdb" p-id="3525" data-spm-anchor-id="a313x.7781069.0.i44" class="selected"></path><path d="M937.9 500.8c-12-88.3-28.7-164.1-49.7-225.1-36.5-106-73.9-132-75.5-133.1-0.4-0.3-0.9-0.6-1.4-0.8L641.5 64.7c-1.3-0.6-2.6-0.9-4-0.9H386.8c-1.4 0-2.8 0.3-4 0.9L213 141.9c-0.5 0.2-1 0.5-1.4 0.8-1.6 1.1-39 27.1-75.5 133.1-21 61-37.8 136.8-49.7 225.1-15 109.9-22.6 240.1-22.6 386.7 0 5.4 4.4 9.8 9.8 9.8h6.6l-0.2 52.7c0 2.6 1 5.1 2.8 7 1.8 1.8 4.3 2.9 6.9 2.9h101.2c5.4 0 9.8-4.3 9.8-9.7l0.3-52.8h6.6c2.6 0 5.2-1.1 7-3 1.8-1.9 2.8-4.5 2.8-7.1-0.1-2.7-6.3-244.2 34.3-384.2v416.4c0 4.1 2.6 7.8 6.5 9.2 3.7 1.3 91.9 31.9 253.9 31.9V941h-7.8V270.9a101.663 101.663 0 0 0 15.6 0V941h-7.8v19.6c162 0 250.3-30.6 253.9-31.9 3.9-1.4 6.5-5.1 6.5-9.2V503.1c40.6 140 34.4 381.4 34.3 384.2-0.1 2.6 0.9 5.2 2.8 7.1 1.8 1.9 4.4 3 7 3h6.6l0.3 52.8c0 5.4 4.4 9.7 9.8 9.7h101.2c2.6 0 5.1-1 6.9-2.9 1.8-1.8 2.9-4.4 2.8-7l-0.3-52.7h6.6c5.4 0 9.8-4.4 9.8-9.8 0.1-146.5-7.5-276.7-22.4-386.7z m-406.3-251L641 86l50.1 22.8c-17.6 30.2-79.6 126.9-159.5 141z m87.5-166.3l-107 160.3-107-160.3h214z m-286 25.3L383.2 86l109.4 163.8c-79.9-14.1-141.9-110.8-159.5-141zM181.2 940.4H99.6l0.2-43h81.6l-0.2 43z m303.5 0.3c-118-2.7-192-22-213.5-28.4V386.5h-19.6v60.8c-26 53.4-43 143.4-50.4 267.6-4.4 73.8-4 138.7-3.7 162.9H83.5c0.7-319.7 38.1-497.8 69.5-591.2 32.1-95.3 64.5-123.8 69-127.4l93.1-42.3c7.9 13.8 25.7 42.9 51.4 72.3 20.5 23.5 41.8 42.3 63.2 55.8 18.2 11.5 36.6 19.2 55 23.1v672.6z m287.9-493.4v-60.8H753v525.8c-21.5 6.4-95.5 25.7-213.5 28.4V268.2c18.3-3.9 36.7-11.6 55-23.1 21.4-13.5 42.7-32.3 63.2-55.8 25.7-29.4 43.5-58.6 51.4-72.3l93.1 42.3c4.5 3.6 36.9 32 69 127.4 31.4 93.4 68.8 271.5 69.6 591.2H826.6c0.4-24.2 0.8-89.1-3.7-162.9-7.4-124.3-24.4-214.3-50.3-267.7z m152 493.1H843l-0.2-43h81.6l0.2 43z" p-id="3526"></path></svg>
