<?xml version="1.0" standalone="no"?><!DOCTYPE svg PUBLIC "-//W3C//DTD SVG 1.1//EN" "http://www.w3.org/Graphics/SVG/1.1/DTD/svg11.dtd"><svg t="1632289772137" class="icon" viewBox="0 0 1024 1024" version="1.1" xmlns="http://www.w3.org/2000/svg" p-id="1072" xmlns:xlink="http://www.w3.org/1999/xlink" width="48" height="48"><defs><style type="text/css"></style></defs><path d="M703.3 228.3c-87 0-92.3-95.3-92.3-95.3h92.3v95.3zM319 228.3c87 0 92.3-95.3 92.3-95.3H319v95.3z" fill="#dbdbdb" p-id="1073" data-spm-anchor-id="a313x.7781069.0.i1" class="selected"></path><path d="M537.5 104.6m-8.5 0a8.5 8.5 0 1 0 17 0 8.5 8.5 0 1 0-17 0Z" fill="#B0D0FF" p-id="1074"></path><path d="M714.1 134.1c0-0.4 0.1-0.7 0.1-1.1V76.2c0-5.5-4.5-10-10-10H319c-5.5 0-10 4.5-10 10v56.6c-0.2 5.2-4 140.2-1.5 296.6 3.3 205.3 15.5 351.4 36.2 434.6h-1.8c-5.5 0-10 4.5-10 10v72.7c0 5.5 4.5 10 10 10H478c5.5 0 10-4.5 10-10V874c0-5.1-3.8-9.2-8.6-9.9l32.2-407.5 32.2 407.5c-4.9 0.7-8.6 4.8-8.6 9.9v72.7c0 5.5 4.5 10 10 10h136.1c5.5 0 10-4.5 10-10V874c0-5.5-4.5-10-10-10h-1.8c20.7-83.2 32.9-229.3 36.2-434.6 2.3-150.2-1.2-280.7-1.6-295.3z m-20-11.1h-70V86.2h70V123z m-172 0V86.2h82V123h-82z m-102 0V86.2h82V123h-82z m102 20h18.3v94.7c0 12-7.7 22.2-18.5 25.8l0.2-120.5zM329 86.2h71V123h-71V86.2z m139 850.5H351.9V884H468v52.7z m-8.7-72.7h-94.9c-46.9-179.5-37.4-647.7-35.6-721h173.3l-0.3 186.4c-0.2 0.7-0.3 1.4-0.4 2.1L459.3 864z m211.8 72.7h-116V884h116.1v52.7zM658.7 864h-94.9l-42-532.2 0.1-47.7c21.9-4.2 38.5-23.4 38.5-46.5V143h134c1.7 73.3 11.3 541.5-35.7 721z" p-id="1075"></path></svg>
