<?xml version="1.0" standalone="no"?><!DOCTYPE svg PUBLIC "-//W3C//DTD SVG 1.1//EN" "http://www.w3.org/Graphics/SVG/1.1/DTD/svg11.dtd"><svg t="1631696105859" class="icon" viewBox="0 0 1024 1024" version="1.1" xmlns="http://www.w3.org/2000/svg" p-id="4209" xmlns:xlink="http://www.w3.org/1999/xlink" width="48" height="48"><defs><style type="text/css"></style></defs><path d="M919.7 898.8c0-2-0.5-4-1.6-5.8L622.8 436.7l71.1-299.8c0.2-0.8 0.3-1.6 0.3-2.4 0-38.3-31.1-69.4-69.4-69.4-4.1 0-7.7 2.4-9.4 6.1-18 40.2-58 66.1-102 66.1s-84-25.9-102-66.1c-1.7-3.7-5.3-6.1-9.4-6.1-39.9 0-72.3 32.4-72.3 72.3 0 0.8 0.1 1.6 0.3 2.4l71 296.4-293 457c0 0.1-0.1 0.1-0.1 0.2-0.1 0.2-0.2 0.4-0.3 0.5-0.1 0.1-0.1 0.2-0.2 0.4s-0.2 0.3-0.2 0.5c-0.1 0.1-0.1 0.3-0.2 0.4-0.1 0.2-0.1 0.3-0.2 0.5s-0.1 0.3-0.1 0.5c0 0.1-0.1 0.3-0.1 0.4 0 0.2-0.1 0.4-0.1 0.6v0.4c0 0.2 0 0.4-0.1 0.6v1.9c0 0.2 0.1 0.4 0.1 0.5 0 0.1 0.1 0.3 0.1 0.4 0 0.2 0.1 0.4 0.2 0.6 0 0.1 0.1 0.3 0.1 0.4 0.1 0.2 0.1 0.4 0.2 0.5 0.1 0.1 0.1 0.3 0.2 0.4 0.1 0.2 0.2 0.3 0.2 0.5 0.1 0.1 0.2 0.3 0.2 0.4 0.1 0.1 0.2 0.3 0.2 0.4 0.1 0.2 0.2 0.3 0.3 0.5 0.1 0.1 0.2 0.2 0.2 0.3 0.1 0.2 0.3 0.3 0.4 0.5l0.1 0.1c4.4 4.8 43.8 46.6 76.6 46.6 19.3 0 26.6-13.7 31.9-23.7 6.1-11.4 10.5-19.6 28.9-19.6 18.8 0 25 8.8 32.9 20 7.3 10.4 16.4 23.2 36.1 23.2 19.9 0 28.7-13 35.7-23.4 7.5-11.1 13.4-19.9 32.1-19.9 19.5 0 26 9.8 33.5 21.1 6.6 9.9 14.7 22.2 32 22.2 17.6 0 26.7-12.8 34.1-23.2 8.9-12.5 15-20.1 29.6-20.1 11.9 0 14.1 4.6 19 14.7 5.4 11.4 13.6 28.5 42.5 28.5 28.5 0 36.5-16.2 42.4-28 5.1-10.2 7.6-15.3 20.7-15.3 15.1 0 21.4 7.5 30.1 17.9 9.4 11.3 21.2 25.3 45.9 25.3 27 0 35.6-17.2 41.3-28.6 5.2-10.4 7.7-14.6 17.2-14.6 11 0 16.2 6.1 24.4 17 8.8 11.7 19.9 26.3 43.4 26.3 23 0 33.9-14.1 42.6-25.4 8.8-11.4 14.4-17.9 27.6-17.9 5.7 0.4 10.3-4.2 10.3-9.9z m-54.2 15.6c-8.5 11.1-14 17.4-26.3 17.4-12.7 0-18.3-6.5-27-18.1-8.5-11.2-19-25.2-40.8-25.2-22.7 0-30.1 15.1-35.6 26-5.3 10.7-8.6 17.2-22.9 17.2-15.1 0-21.4-7.5-30.1-17.9-9.4-11.3-21.2-25.3-45.9-25.3-25.8 0-33.5 15.4-39.1 26.6-5.2 10.4-8.3 16.6-24 16.6-15.8 0-18.9-6.3-23.9-16.8-5.3-11.2-12.6-26.4-37.5-26.4-26 0-37.8 16.6-46.4 28.8-7.3 10.3-10.9 14.5-17.3 14.5-5.7 0-8.5-3.4-14.9-13-8.5-12.8-20.1-30.3-50.6-30.3-29.6 0-40.9 16.7-49.1 28.9-6.7 9.9-10.1 14.3-18.7 14.3-8.7 0-12.4-4.7-19.3-14.5-8.5-12.1-20.2-28.8-49.7-28.8-30.7 0-40.5 18.3-47 30.4-5.5 10.2-7.6 12.8-13.8 12.8-15.9 0-40.6-19.2-55.9-34.3l289.8-452c2.3-2.4 3.4-6 2.6-9.5l-71.7-299.6c0.6-25.9 20.2-47.1 45.4-50.2 22.6 43.9 68 71.8 117.7 71.8s95.1-28 117.6-71.8c23.6 3 42 23 42.5 47.3L602.3 434c-1.5 3.1-1.4 6.9 0.6 10l289.5 447.4c-12.8 4.7-20.4 14.6-26.9 23z" p-id="4210"></path><path d="M647.2 342.3l-135.1 64.2L377 342.3c-9.2-4.4-19.7 2.3-19.7 12.5v129c0 10.1 10.6 16.8 19.7 12.5L512.1 432l135.1 64.2c9.2 4.4 19.7-2.3 19.7-12.5v-129c0-10.1-10.6-16.8-19.7-12.4z" fill="#dbdbdb" p-id="4211" data-spm-anchor-id="a313x.7781069.0.i50" class="selected"></path></svg>