<?xml version="1.0" standalone="no"?><!DOCTYPE svg PUBLIC "-//W3C//DTD SVG 1.1//EN" "http://www.w3.org/Graphics/SVG/1.1/DTD/svg11.dtd"><svg t="1632290211226" class="icon" viewBox="0 0 1024 1024" version="1.1" xmlns="http://www.w3.org/2000/svg" p-id="875" xmlns:xlink="http://www.w3.org/1999/xlink" width="48" height="48"><defs><style type="text/css"></style></defs><path d="M454.1 458.2V587l-10.6 11.8h-52.9l5.6-96.3s19.1-7.7 28.1-44.4h29.8zM570 458.2V587l10.6 11.8h52.9l-5.6-96.3s-19.1-7.7-28.1-44.4H570zM498.4 298.5h27.9v13.9h-27.9z" fill="#dbdbdb" p-id="876" data-spm-anchor-id="a313x.7781069.0.i0" class="selected"></path><path d="M648.8 359.7c0.8-2.5 0.6-5.2-0.6-7.6-30.3-58.2-37.5-141.2-37.6-142.1-0.4-5.1-4.6-8.9-9.7-8.9h-11.4V74c0-5.4-4.4-9.8-9.8-9.8h-28.3c-5.4 0-9.8 4.4-9.8 9.8v127.1h-58.7V74c0-5.4-4.4-9.8-9.8-9.8h-28.3c-5.4 0-9.8 4.4-9.8 9.8v127.1h-11.8c-5.1 0-9.3 3.9-9.7 8.9-0.1 0.8-7.3 83.8-37.6 142.1-1.2 2.3-1.4 5.1-0.6 7.6 0.5 1.6 1.5 3 2.7 4.2 1 1.6 5.8 10.8 11 45.3-1.3 13.6-11.6 127.8-11.6 186.6 0 60.8 1.9 351.3 2 354.2 0 5.4 4.4 9.7 9.8 9.7H484c5.3 0 9.7-4.3 9.7-9.6 0-2.6 3.9-216.6 18.4-324.3 14.9 107.7 19.9 321.8 20 324.4 0.1 5.3 4.4 9.5 9.7 9.5h94.8c5.4 0 9.8-4.4 9.8-9.8V595.6c0-58.7-10.3-172.9-11.5-186.6 5.2-34.4 10-43.6 11-45.3 1.4-1 2.3-2.4 2.9-4z m-126.9 84v-25.2h53v25.2h-53z m0 19.5h4.8v79.3c0 4.3-1.9 8.1-4.8 10.7v-90z m-116.1-19.5c0.9-10.5 1.6-19.2 2.1-25.2h27.2v25.2h-29.3z m48.8-25.2h47.9v25.2h-47.9v-25.2z m139.9 0h21.8c0.5 6 1.3 14.7 2.1 25.2h-23.9v-25.2zM561.1 83.7h8.8v117.4h-8.8V83.7z m-106.4 0h8.8v117.4h-8.8V83.7z m-22.5 136.9H592c2.7 23 11.7 85.3 36.2 135.3-3.3 6.7-7.3 19.2-11.3 43.1H407.3c-4-24-8-36.5-11.3-43.1 24.4-50 33.5-112.3 36.2-135.3zM474.6 940H399c-0.3-51.2-1.9-290-1.9-344.4 0-34.8 3.8-90.9 7.1-132.4h98.3v111c-20.7 66.7-26.8 313.1-27.9 365.8z m152.5 0.1h-75.6c-1.4-52.4-8.9-297.2-29.3-365.1 13.9-4.2 24.1-17.2 24.1-32.4v-79.3H620c3.3 41.5 7.1 97.7 7.1 132.5v344.3z" p-id="877"></path><path d="M476.3 372.6h77.5c11.8 0 21.5-9.6 21.5-21.5V262c0-5.4-4.4-9.8-9.8-9.8H464.6c-5.4 0-9.8 4.4-9.8 9.8v89.2c0.1 11.8 9.7 21.4 21.5 21.4z m77.5-19.5h-77.5c-1.1 0-2-0.9-2-2v-48.5c0.6 0.1 1.3 0.1 2 0.1h77.5c0.7 0 1.3 0 2-0.1v48.5c0 1.1-0.9 2-2 2z m-79.4-81.4h81.4v9.6c0 1.1-0.9 2-2 2h-77.5c-1.1 0-2-0.9-2-2v-9.6z" p-id="878"></path></svg>
