<?xml version="1.0" standalone="no"?><!DOCTYPE svg PUBLIC "-//W3C//DTD SVG 1.1//EN" "http://www.w3.org/Graphics/SVG/1.1/DTD/svg11.dtd"><svg t="1631694896888" class="icon" viewBox="0 0 1024 1024" version="1.1" xmlns="http://www.w3.org/2000/svg" p-id="3080" xmlns:xlink="http://www.w3.org/1999/xlink" width="48" height="48"><defs><style type="text/css"></style></defs><path d="M933.3 858.3l-158-672.6c-2.7-11.3-10.2-20.8-20.6-26l-62-31-47.6-61v-0.1c-0.2-0.2-0.4-0.4-0.5-0.6l-0.2-0.2c-0.2-0.2-0.5-0.5-0.8-0.7l-0.1-0.1c-0.2-0.2-0.5-0.4-0.8-0.5-0.1 0-0.1-0.1-0.2-0.1-0.2-0.1-0.5-0.3-0.7-0.4-0.1 0-0.2-0.1-0.3-0.1-0.2-0.1-0.5-0.2-0.7-0.3-0.1 0-0.2-0.1-0.3-0.1-0.2-0.1-0.5-0.1-0.7-0.2-0.1 0-0.2-0.1-0.3-0.1-0.2-0.1-0.5-0.1-0.7-0.1h-0.3c-0.3 0-0.7-0.1-1-0.1l-125.3 0.3L387 64c-0.3 0-0.7 0-1 0.1-0.2 0-0.4 0.1-0.5 0.1-0.1 0-0.3 0-0.4 0.1-0.2 0-0.4 0.1-0.6 0.1-0.1 0-0.3 0.1-0.4 0.1-0.2 0.1-0.4 0.1-0.6 0.2-0.1 0.1-0.3 0.1-0.4 0.2-0.2 0.1-0.3 0.2-0.5 0.2-0.1 0.1-0.3 0.2-0.4 0.2-0.2 0.1-0.3 0.2-0.5 0.3-0.2 0.1-0.3 0.2-0.5 0.3-0.1 0.1-0.2 0.2-0.4 0.3-0.3 0.2-0.5 0.4-0.7 0.7-0.1 0.1-0.1 0.2-0.2 0.2-0.2 0.2-0.4 0.4-0.5 0.6l-0.1 0.1-47.6 61-62 31c-10.4 5.2-17.9 14.7-20.6 26L91 858.3c-0.6 2.6-0.1 5.3 1.3 7.5s3.7 3.8 6.3 4.3l128.8 26.7c0.7 0.1 1.3 0.2 2 0.2 4.5 0 8.5-3.1 9.5-7.7L331.4 468c4.5 28.2 8.2 71.9 5.1 133.4-0.1 2.7 0.8 5.3 2.7 7.2 1.8 1.9 4.4 3 7.1 3H678.1c2.7 0 5.2-1.1 7.1-3 1.8-1.9 2.8-4.6 2.7-7.2-3.2-61.5 0.6-105.2 5.1-133.4l92.6 421.4c1 4.6 5 7.7 9.5 7.7 0.7 0 1.3-0.1 2-0.2l128.8-26.7c2.6-0.5 4.8-2.1 6.3-4.3 1.3-2.3 1.7-5 1.1-7.6zM512.1 184.9L410.6 83.5l101.5 0.3 101.6-0.3-101.6 101.4zM387.8 88.4l110.5 110.4-42.9 42.7-104.5-105.9 36.9-47.2z m248.8 0l36.9 47.2-104.6 105.8-43-42.7L636.6 88.4z m165.9 787.3L702.8 422c-0.9-4.2-4.4-7.3-8.7-7.6-4.3-0.4-8.3 2.1-9.9 6-0.9 2.2-21.2 53-16.4 171.7H356.5c4.8-118.7-15.5-169.6-16.4-171.7-1.6-4-5.6-6.4-9.9-6-4.3 0.4-7.8 3.5-8.7 7.6l-99.7 453.8L112.3 853 268 190.1c1.3-5.7 5.1-10.4 10.3-13l57.6-28.8 112.4 113.9c1.8 1.9 4.3 2.9 6.9 2.9 2.6 0 5.1-1 6.9-2.8l49.9-49.6 50 49.7c1.8 1.8 4.3 2.8 6.9 2.8 2.6 0 5.1-1.1 6.9-2.9l112.4-113.9 57.6 28.8c5.2 2.6 9 7.4 10.3 13L912 853l-109.5 22.7z" p-id="3081"></path><path d="M687.8 641c0-5.4-4.4-9.8-9.8-9.8H346.3c-3.6 0-6.7 1.9-8.4 4.8 0 0.1-0.1 0.1-0.1 0.3v0.1c-2.5 4.6-27 54.3-40.7 262.9-0.2 3.6 1.5 7.1 4.6 9 0.9 0.5 21.7 13.4 58.1 26.2 33.4 11.8 86.8 25.9 151.7 25.9h0.4c64.9 0 118.3-14.1 151.7-25.9 36.4-12.9 57.2-25.7 58.1-26.2 3.1-1.9 4.8-5.3 4.6-9-11.7-177.8-31.2-240.1-38.2-257.5-0.3-0.3-0.3-0.6-0.3-0.8zM511.7 940.7h-0.4c-101.6 0-175.1-35.8-194.4-46.3 11.3-167.3 29.6-227.4 35.8-243.6h317.7c6.2 16.2 24.4 76.3 35.7 243.6-19.3 10.4-92.8 46.3-194.4 46.3z" p-id="3082"></path><path d="M474.8 343.7m-16 0a16 16 0 1 0 32 0 16 16 0 1 0-32 0Z" fill="#dbdbdb" p-id="3083" data-spm-anchor-id="a313x.7781069.0.i39" class="selected"></path><path d="M549.2 343.7m-16 0a16 16 0 1 0 32 0 16 16 0 1 0-32 0Z" fill="#dbdbdb" p-id="3084" data-spm-anchor-id="a313x.7781069.0.i38" class="selected"></path><path d="M474.8 432.2m-16 0a16 16 0 1 0 32 0 16 16 0 1 0-32 0Z" fill="#dbdbdb" p-id="3085" data-spm-anchor-id="a313x.7781069.0.i40" class="selected"></path><path d="M549.2 432.2m-16 0a16 16 0 1 0 32 0 16 16 0 1 0-32 0Z" fill="#dbdbdb" p-id="3086" data-spm-anchor-id="a313x.7781069.0.i37" class="selected"></path></svg>