<?xml version="1.0" standalone="no"?><!DOCTYPE svg PUBLIC "-//W3C//DTD SVG 1.1//EN" "http://www.w3.org/Graphics/SVG/1.1/DTD/svg11.dtd"><svg t="1631694645714" class="icon" viewBox="0 0 1024 1024" version="1.1" xmlns="http://www.w3.org/2000/svg" p-id="2099" width="48" height="48" xmlns:xlink="http://www.w3.org/1999/xlink"><defs><style type="text/css"></style></defs><path d="M861.4 393.6c-193 0-216.9-192.7-216.9-192.7h178.6l38.3 192.7zM162.6 393.6c193 0 216.9-192.7 216.9-192.7H201l-38.4 192.7z" fill="#dbdbdb" p-id="2100" data-spm-anchor-id="a313x.7781069.0.i25" class="selected"></path><path d="M512.1 155.5m-21.9 0a21.9 21.9 0 1 0 43.8 0 21.9 21.9 0 1 0-43.8 0Z" fill="#dbdbdb" p-id="2101" data-spm-anchor-id="a313x.7781069.0.i26" class="selected"></path><path d="M956.8 820.7L833.5 199.9V110c0-5.5-4.5-10-10-10h-622c-5.5 0-10 4.5-10 10v89.9l-124 620.8c-1 5.2 2.2 10.3 7.4 11.7l370.4 93.8c0.8 0.2 1.6 0.3 2.5 0.3 4 0 7.7-2.4 9.2-6.2l55.2-133.5L567 919.9c1.9 4.6 6.9 7.1 11.7 5.9l370.9-93.4c5-1.3 8.2-6.4 7.2-11.7zM211.4 120h602v70.9h-602V120z m310.7 90.9h44.3v172.5c0 26.8-19.1 49.1-44.3 53.8V210.9z m-80.4 693.7L88.9 815.3l8.5-42.4 360.5 92.6-16.2 39.1z m70.4-154c-4.1 0-7.7 2.4-9.2 6.2l-37.2 90-364.3-93.5L209.7 211h292.5v389c0 5.5 4.5 10 10 10s10-4.5 10-10V457.5c36.3-4.9 64.3-36.3 64.3-74.1V210.9h228.8l107.3 540.3L557.3 844l-35.9-87.3c-1.6-3.7-5.2-6.1-9.3-6.1z m70 153.7L565 862.7l361.5-91.8 8.8 44.4-353.2 89z" p-id="2102"></path></svg>