<?xml version="1.0" standalone="no"?><!DOCTYPE svg PUBLIC "-//W3C//DTD SVG 1.1//EN" "http://www.w3.org/Graphics/SVG/1.1/DTD/svg11.dtd"><svg t="1631695211404" class="icon" viewBox="0 0 1024 1024" version="1.1" xmlns="http://www.w3.org/2000/svg" p-id="3328" xmlns:xlink="http://www.w3.org/1999/xlink" width="48" height="48"><defs><style type="text/css"></style></defs><path d="M716.6 419.3c-2.9 0-5.8-1.1-8-3.2L666 375.8l-46.4 30.8c-4.3 2.9-10.1 2.5-14-0.8l-41.3-35.2-46.7 34.1c-4.1 3-9.7 3-13.8-0.1l-44.2-32.8-43.9 36c-4.1 3.4-9.9 3.5-14.2 0.5l-46.2-33.1-43.8 39.4c-3.8 3.4-9.4 4-13.7 1.4l-48.4-28.6c-5.5-3.3-7.4-10.4-4.1-16 3.3-5.5 10.4-7.4 16-4.1l41 24.2 44.4-40c4.1-3.7 10.1-4 14.6-0.8l46.6 33.4 44-36.1c4.1-3.4 10.1-3.5 14.4-0.3l44.6 33.1 47.2-34.5c4.4-3.2 10.3-3 14.5 0.5l41.6 35.5 46.8-31.1c4.5-3 10.5-2.5 14.5 1.2l42.8 40.6 44.2-26.2c5.5-3.3 12.7-1.5 16 4.1 3.3 5.5 1.5 12.7-4.1 16l-51.8 30.7c-1.9 1.2-4 1.7-6 1.7zM716.6 499.9c-2.9 0-5.8-1.1-8-3.2L666 456.4l-46.4 30.8c-4.3 2.9-10.1 2.5-14-0.8l-41.3-35.2-46.7 34.1c-4.1 3-9.7 3-13.8-0.1l-44.2-32.8-43.9 36c-4.1 3.4-9.9 3.5-14.2 0.5l-46.2-33.1-43.8 39.4c-3.8 3.4-9.5 4-13.9 1.3l-58-35.2c-5.5-3.3-7.3-10.5-3.9-16 3.3-5.5 10.5-7.3 16-3.9l50.6 30.7 44.3-39.9c4.1-3.7 10.1-4 14.6-0.8l46.6 33.4 44-36.1c4.1-3.4 10.1-3.5 14.4-0.3l44.6 33.1L558 427c4.4-3.2 10.3-3 14.5 0.5L614 463l46.8-31.1c4.5-3 10.5-2.5 14.5 1.2l42.8 40.6 52.3-31c5.5-3.3 12.7-1.5 16 4.1 3.3 5.5 1.5 12.7-4.1 16l-59.8 35.6c-1.8 1-3.9 1.5-5.9 1.5z" fill="#dbdbdb" p-id="3329" data-spm-anchor-id="a313x.7781069.0.i42" class="selected"></path><path d="M960.8 854l-10.5-44.4c4-1.8 6.4-6.2 5.6-10.6-3.7-19.9-89.8-487.6-122.6-601-14.3-49.5-47.4-87.9-95.9-111.2-36.3-17.4-68.1-20.2-69.4-20.3h-1.8c-0.2 0-0.3 0-0.5 0.1-0.2 0-0.3 0.1-0.5 0.1-0.1 0-0.2 0.1-0.3 0.1-0.2 0.1-0.4 0.1-0.7 0.2h-0.1c-3.8 1.3-6.6 4.9-6.6 9.2 0 0.4-0.3 42.5-18.7 83.7-24 53.6-66.4 80.8-126.2 80.8-60.5 0-103.6-27.2-127.9-80.8-18.7-41.2-19-83.2-19-83.6v-0.4-0.4-0.1c0-0.2 0-0.4-0.1-0.6 0-0.1 0-0.3-0.1-0.4 0-0.2-0.1-0.4-0.1-0.5 0-0.1-0.1-0.3-0.1-0.4 0-0.2-0.1-0.3-0.2-0.5-0.1-0.1-0.1-0.3-0.2-0.4-0.1-0.1-0.1-0.3-0.2-0.4-0.1-0.2-0.2-0.3-0.2-0.5-0.1-0.1-0.1-0.2-0.2-0.3-0.1-0.2-0.2-0.4-0.3-0.5-0.1-0.1-0.1-0.2-0.2-0.2-0.1-0.2-0.3-0.4-0.4-0.5l-0.2-0.2-0.5-0.5-0.2-0.2-0.5-0.5c-0.1 0-0.1-0.1-0.2-0.1-0.2-0.1-0.4-0.3-0.6-0.4-0.1 0-0.1-0.1-0.2-0.1-0.2-0.1-0.4-0.3-0.6-0.4-0.1 0-0.1-0.1-0.2-0.1-0.2-0.1-0.4-0.2-0.7-0.3-0.1 0-0.1 0-0.2-0.1-0.2-0.1-0.5-0.2-0.7-0.3-0.1 0-0.1 0-0.2-0.1-0.2-0.1-0.5-0.1-0.7-0.2h-0.2c-0.2 0-0.5-0.1-0.7-0.1h-1-0.9c-1.3 0.1-32.6 2.9-68.4 20.3-47.7 23.2-80.5 61.6-94.7 111.1C159.5 311.4 68.4 794.1 67.5 799c-0.9 4.9 2 9.6 6.7 11.1l-10.4 44.2c-1.2 5.2 2 10.4 7.2 11.7l22.7 5.5c0.9 0.5 1.8 0.9 2.8 1.1 0.7 0.2 1.4 0.2 2.1 0.2h0.5l22 5.3c0.9 0.5 1.8 0.9 2.9 1.2 0.7 0.2 1.4 0.2 2.1 0.2h0.6l23.9 5.8c0.8 0.2 1.5 0.3 2.3 0.3 1.8 0 3.6-0.5 5.2-1.5 2.2-1.4 3.8-3.6 4.3-6.2l9.7-45.3c0.4 0.1 0.8 0.1 1.2 0.1 4.4 0 8.4-3 9.4-7.4l40.8-169.6c0.6 42.2 3.2 81.4 7.7 117.1 7.1 56.5 19.2 104.5 36 143.4 0.1 0.3 0.2 0.6 0.4 0.8 5.5 12.7 11.5 24.4 18.1 35.1v0.1s0 0.1 0.1 0.1l0.1 0.1c0.2 0.3 0.4 0.5 0.6 0.8 0.1 0.1 0.1 0.2 0.2 0.3 0.2 0.2 0.4 0.5 0.6 0.7l0.2 0.2c0.3 0.2 0.5 0.5 0.8 0.7 0.1 0.1 0.2 0.2 0.3 0.2 0.2 0.1 0.4 0.3 0.6 0.4 0.1 0.1 0.2 0.1 0.4 0.2 0.3 0.1 0.5 0.3 0.8 0.4 0.1 0 0.1 0.1 0.2 0.1 0.4 0.1 0.7 0.3 1.1 0.3h0.2c0.3 0.1 0.6 0.1 0.9 0.2h0.3c0.3 0 0.6 0.1 0.9 0.1H294.3c0.4 0 0.8 0 1.2-0.1h0.3c0.2 0 0.4-0.1 0.7-0.1 0.6-0.1 61-13.9 144.1-20.8 76.5-6.3 188.3-7.9 286.2 20.6 0.4 0.1 0.7 0.2 1.1 0.2h0.2c0.4 0 0.7 0.1 1.1 0.1h0.3c0.4 0 0.8 0 1.1-0.1h0.2c0.4-0.1 0.7-0.1 1.1-0.2h0.1c0.3-0.1 0.7-0.2 1-0.3 0.1 0 0.1 0 0.2-0.1 0.3-0.1 0.6-0.3 0.9-0.4 0.1 0 0.2-0.1 0.2-0.1 0.3-0.2 0.5-0.3 0.8-0.5 0.1 0 0.1-0.1 0.2-0.1 0.3-0.2 0.6-0.4 0.8-0.7l0.2-0.2 0.8-0.8s0-0.1 0.1-0.1c0.2-0.3 0.5-0.6 0.7-1v-0.1s0-0.1 0.1-0.1c6.4-10.6 12.4-22.1 17.8-34.6 0.1-0.3 0.3-0.6 0.4-0.9 16.9-39 29-87.2 36.2-143.9 4.4-34.8 6.9-72.8 7.6-113.8l40.9 166.3c1.1 4.4 5.1 7.4 9.4 7.4 0.7 0 1.5-0.1 2.2-0.2h0.2l9.7 45.3c0.6 2.6 2.1 4.8 4.3 6.2 1.6 1 3.4 1.5 5.2 1.5 0.8 0 1.5-0.1 2.3-0.3l79.6-19.3c5-1.4 8.2-6.6 7-11.8z m-54.2 3.1l-8.7-34.7 7.8-1.8 8.5 34.7-7.6 1.8zM689.9 153.2l-23-13.3c6.4-21.7 8.7-41 9.6-52.5 6.1 1.1 14.6 2.9 24.4 6-0.7 11-3.1 33.8-11 59.8z m-33.1 14.1c1.3-2.9 2.5-5.8 3.6-8.7l22.9 13.2c-1.8 4.6-3.9 9.2-6.1 13.9-12.1 25.1-28 45.4-47.3 60.8l-13.2-22.8c19.1-17 31.8-37.5 40.1-56.4z m-153.6 92.6l0.5 22.4c-35.8-1.3-66.6-9.6-92.1-24.9l12.3-21.3c20.3 13.2 46.3 22.4 79.3 23.8z m19.9 22.4l-0.5-22.4c32.8-1.6 58.5-10.9 78.6-24.2l12.7 21.9c-25.3 15.2-55.6 23.5-90.8 24.7z m-114.9-57.9l-12.7 22c-18.7-14.8-34-34-45.8-57.7-2.6-5.1-4.8-10.2-6.9-15.3l21.3-12.3 2.7 6.3c8.6 19.1 21.7 39.9 41.4 57z m-50.7-81.9l-21.2 12.3c-10.3-34-10.6-61.7-10.6-62.1 8.5-2.5 15.8-4.2 21.3-5.2 0.9 11.9 3.4 32.3 10.5 55zM110.2 855.4l7.7-34.8 8.6 2-7.8 34.9-8.5-2.1z m-17.1-40.5l6 1.4-7.7 34.6-6.4-1.6 8.1-34.4z m52.3 49.1l-7.7-1.9 7.8-35.2 7.5 1.7-7.6 35.4z m296.8 52.2l-3.9-22.1c19.4-1.8 40.9-3.2 63.7-3.8V913c-21.4 0.6-41.6 1.8-59.8 3.2z m-23.3-20.1l3.8 21.8c-22 2.1-42.2 4.6-59.8 7.2l-7.2-19.9c18.6-3.2 39.9-6.4 63.2-9.1z m-82.6 12.7l7 19.3c-20.7 3.3-36.1 6.4-44.4 8.1-3.1-5.4-6.1-11.2-8.9-17.1 9.7-2.5 25.7-6.3 46.3-10.3z m185.1 3.9V890c20.3-0.1 41.6 0.5 63.4 2l-3.9 22c-20.4-1.1-40.3-1.5-59.5-1.3z m212.1 6.2c-2.8 5.9-5.7 11.5-8.8 16.9-14.8-4.1-29.9-7.5-45.1-10.3l6.9-19.1c15.8 3.5 31.5 7.6 47 12.5z m-73.3 3.2c-20-3.1-40-5.4-59.7-6.9l3.8-21.7c20.8 2 41.9 4.9 63.1 8.9l-7.2 19.7z m138.4-349.2l-0.3-6.9c-5.8-131.3-25.9-241.3-26.1-242.4-1-5.3-6-8.8-11.3-7.8-5.3 1-8.8 6-7.8 11.3 0.2 1.1 20 109.8 25.8 239.8 0.1 2.6 0.2 5.2 0.3 7.7v0.2c5.5 139.2-7.5 250.6-37.9 326.3-18.6-5.9-38.1-11-58.2-15.3-0.5-0.2-1.1-0.3-1.6-0.3-31.6-6.6-64.9-11-99.7-13.2-22.8-1.5-46.2-2-70-1.6h-0.4c-27 0.5-54.6 2.1-82.6 4.9-72.2 7.3-126.5 20.2-146.7 25.5-30.9-77.1-43.9-191.1-37.6-333.9 5.8-130 25.6-238.9 25.8-240 1-5.3-2.5-10.4-7.8-11.3-5.3-1-10.4 2.5-11.3 7.8-0.2 1.1-20.3 111.1-26.1 242.4 0 1.1-0.1 2.1-0.1 3.2-0.5 0.9-0.9 1.8-1.2 2.9l-57.6 239.3-77.8-17.8c12.8-67.5 92.5-486.2 122.5-590.1 12.8-44.4 41.1-77.6 84-98.7 3.9-1.9 7.8-3.7 11.6-5.2 0.9 15.7 5.2 56.3 25.5 97.3 14.9 30 35.3 54.1 60.8 71.5 0.1 0.1 0.2 0.2 0.4 0.3 0.3 0.2 0.5 0.4 0.8 0.6 32.4 21.8 72.7 32.8 119.7 32.8s87.3-11.4 119.6-33.9c25.9-18 46.7-43.1 61.8-74.5 17.8-37.2 23.2-73.9 24.9-93.3 3 1.3 6 2.6 9.1 4.1 43.9 21.1 72.7 54.4 85.6 99 30 103.9 108 522.6 120.4 590l-77.8 17.9-58.7-238.6z m72.9 255.6l7.4-1.7 8.7 35-8.6 2.1-7.5-35.4z m61.6 22.2l-8.4-34.4 6.8-1.6 8.1 34.4-6.5 1.6z" p-id="3330"></path></svg>