<?xml version="1.0" standalone="no"?><!DOCTYPE svg PUBLIC "-//W3C//DTD SVG 1.1//EN" "http://www.w3.org/Graphics/SVG/1.1/DTD/svg11.dtd"><svg t="1631694709331" class="icon" viewBox="0 0 1024 1024" version="1.1" xmlns="http://www.w3.org/2000/svg" p-id="2684" xmlns:xlink="http://www.w3.org/1999/xlink" width="48" height="48"><defs><style type="text/css"></style></defs><path d="M994.6 294.8L790.4 102.2c-2.1-2-4.8-2.9-7.5-2.8h-55.1c-4.5 0-8.5 2.9-9.9 7.2-29.1 89.5-112 149.7-206.2 149.7-94.2 0-177-60.1-206.2-149.7-1.4-4.3-5.4-7.2-9.9-7.2h-57.3c-0.2 0-0.3 0-0.5 0.1-0.2 0-0.3 0-0.5 0.1-0.2 0-0.3 0.1-0.5 0.1s-0.3 0.1-0.5 0.1-0.3 0.1-0.5 0.2-0.3 0.1-0.5 0.2-0.3 0.1-0.5 0.2-0.3 0.1-0.5 0.2-0.3 0.2-0.4 0.2c-0.1 0.1-0.3 0.2-0.4 0.3-0.2 0.1-0.3 0.2-0.4 0.3-0.1 0.1-0.3 0.2-0.4 0.3-0.2 0.1-0.3 0.2-0.4 0.4-0.1 0.1-0.2 0.1-0.2 0.2L28 294.8c-3.7 3.5-4.3 9.1-1.5 13.3l113.6 169.8c1.7 2.6 4.5 4.3 7.6 4.6 0.3 0 0.7 0.1 1 0.1 2.7 0 5.4-1.1 7.3-3l72.9-72.7v507.4c0 5.7 4.6 10.4 10.4 10.4h543.5c5.7 0 10.4-4.6 10.4-10.4V406.4l73.3 73.1c2 2 4.6 3 7.3 3 0.3 0 0.7 0 1-0.1 3.1-0.3 5.9-2 7.6-4.6L996 308c3-4.1 2.3-9.7-1.4-13.2zM872.3 455.9L790.2 374c-0.1-0.1-0.2-0.2-0.3-0.2-0.2-0.2-0.3-0.3-0.5-0.4-0.1-0.1-0.3-0.2-0.4-0.3-0.1-0.1-0.3-0.2-0.4-0.3-0.2-0.1-0.3-0.2-0.5-0.3-0.1-0.1-0.3-0.2-0.4-0.2-0.2-0.1-0.3-0.2-0.5-0.2-0.1-0.1-0.3-0.1-0.4-0.2-0.2-0.1-0.3-0.1-0.5-0.2s-0.3-0.1-0.5-0.2c-0.2 0-0.3-0.1-0.5-0.1s-0.3-0.1-0.5-0.1-0.4-0.1-0.6-0.1c-0.1 0-0.3 0-0.4-0.1h-0.9-0.1c-0.3 0-0.7 0-1 0.1-0.1 0-0.2 0-0.4 0.1-0.2 0-0.4 0.1-0.6 0.1-0.2 0-0.3 0.1-0.5 0.1s-0.4 0.1-0.5 0.1c-0.1 0-0.3 0.1-0.4 0.2-0.2 0.1-0.4 0.1-0.5 0.2-0.1 0.1-0.3 0.1-0.4 0.2-0.2 0.1-0.4 0.2-0.5 0.3-0.1 0.1-0.2 0.1-0.3 0.2-0.2 0.1-0.4 0.2-0.5 0.3l-0.3 0.3c-0.2 0.1-0.3 0.2-0.5 0.4s-0.5 0.4-0.7 0.6c-0.1 0.1-0.2 0.2-0.2 0.3-0.2 0.2-0.3 0.3-0.4 0.5-0.1 0.1-0.2 0.3-0.3 0.4-0.1 0.1-0.2 0.3-0.3 0.4-0.1 0.2-0.2 0.3-0.3 0.5-0.1 0.1-0.2 0.3-0.2 0.4-0.1 0.2-0.2 0.3-0.2 0.5-0.1 0.1-0.1 0.3-0.2 0.4-0.1 0.2-0.1 0.3-0.2 0.5s-0.1 0.3-0.2 0.5c0 0.2-0.1 0.3-0.1 0.5s-0.1 0.3-0.1 0.5-0.1 0.4-0.1 0.5c0 0.2-0.1 0.3-0.1 0.5v523.5H249.7V384.4c1.1-3.6 0.3-7.6-2.6-10.4-2.1-2.1-4.9-3.1-7.6-3h-0.2c-3.8 0-7.1 2-8.9 5.1l-80.1 79.8-101.7-152 194.8-183.7h44.9c15.9 44.2 44.4 82.3 82.5 110.5 41 30.3 89.8 46.3 140.9 46.3 51.2 0 99.9-16 140.9-46.3 38.2-28.2 66.6-66.3 82.5-110.5h44L974 303.9l-101.7 152z" p-id="2685"></path><path d="M455.3 373.2v68.6c0 35.9-29.4 65.3-65.3 65.3s-65.3-29.4-65.3-65.3v-68.6h130.6z" fill="#dbdbdb" p-id="2686" data-spm-anchor-id="a313x.7781069.0.i34" class="selected"></path></svg>