<?xml version="1.0" standalone="no"?><!DOCTYPE svg PUBLIC "-//W3C//DTD SVG 1.1//EN" "http://www.w3.org/Graphics/SVG/1.1/DTD/svg11.dtd"><svg t="1557303795271" class="icon" style="" viewBox="0 0 1024 1024" version="1.1" xmlns="http://www.w3.org/2000/svg" p-id="1769" xmlns:xlink="http://www.w3.org/1999/xlink" width="32" height="32"><defs><style type="text/css"></style></defs><path d="M526.222222 995.555556C785.379556 995.555556 995.555556 785.493333 995.555556 526.222222 995.555556 267.064889 785.493333 56.888889 526.222222 56.888889 267.064889 56.888889 56.888889 267.064889 56.888889 526.222222S267.064889 995.555556 526.222222 995.555556z m-49.351111-632.092445V284.444444h87.182222v79.018667h177.948445v34.844445l-177.948445 1.194666v49.095111l146.858667 1.194667c-4.039111 26.595556-11.207111 52.622222-21.248 77.624889a384.711111 384.711111 0 0 1-36.124444 75.064889L938.666667 697.059556a549.262222 549.262222 0 0 1-22.641778 50.488888A631.694222 631.694222 0 0 1 886.528 796.444444l-272.270222-129.735111a410.936889 410.936889 0 0 1-103.936 82.232889 264.533333 264.533333 0 0 1-178.062222 25.315556c-65.393778-15.559111-111.644444-57.372444-103.822223-134.798222 7.765333-77.425778 90.339556-104.220444 158.293334-104.220445 67.925333 0 196.551111 44.088889 196.551111 44.088889s10.780444-24.348444 21.248-52.138667c6.200889-16.184889 10.695111-32.910222 13.454222-50.062222h-274.318222v-27.335111h133.006222v-52.650667l-165.888 1.166223v-34.844445h166.115556z m63.573333 247.466667S461.653333 682.666667 368.583111 682.666667C275.626667 682.666667 256 648.618667 256 624.128c0-24.433778 19.427556-51.143111 98.417778-55.011556 79.018667-3.868444 186.026667 41.813333 186.026666 41.813334z" p-id="1770" fill="#4ea1e1"></path></svg>