<?xml version="1.0" standalone="no"?><!DOCTYPE svg PUBLIC "-//W3C//DTD SVG 1.1//EN" "http://www.w3.org/Graphics/SVG/1.1/DTD/svg11.dtd"><svg t="1578633893182" class="icon" viewBox="0 0 1024 1024" version="1.1" xmlns="http://www.w3.org/2000/svg" p-id="6014" xmlns:xlink="http://www.w3.org/1999/xlink" width="32" height="32"><defs><style type="text/css"></style></defs><path d="M511.82939 0C229.256914 0 0 229.128957 0 511.82939c0 209.551483 126.037987 389.630123 306.415195 468.793069-1.450183-35.7001-0.213262-78.651116 8.871709-117.55015l65.855382-278.861713s-16.335888-32.671776-16.335888-81.039653c0-75.836055 44.017328-132.478507 98.74042-132.478507 46.49117 0 69.011663 34.975008 69.011663 76.902366 0 46.747084-29.856714 116.739753-45.211597 181.571476-12.795735 54.33922 27.212263 98.612463 80.783739 98.612462 96.991669 0 162.292569-124.545152 162.292569-272.122625 0-112.175941-75.537488-196.115961-212.963679-196.115962-155.254915 0-251.948017 115.758747-251.948017 245.038321 0 44.657114 13.094302 76.091969 33.695435 100.403865 9.511496 11.260247 10.79107 15.696101 7.336221 28.577141-2.388537 9.340886-8.061313 32.074642-10.407197 41.074309-3.412196 12.923692-13.904698 17.615462-25.59147 12.795734-71.57081-29.174275-104.83972-107.484172-104.83972-195.561479 0-145.359547 122.625791-319.765412 365.787404-319.765412 195.433522 0 324.073309 141.478174 324.073309 293.235589 0 200.807731-111.62146 350.773742-276.217261 350.773742-55.192269 0-107.228257-29.856714-125.014328-63.722759 0 0-29.77141 117.89137-35.998667 140.667777-10.833722 39.410863-32.074642 78.907031-51.524159 109.616794 46.064645 13.563479 94.688437 20.985005 145.018327 20.985005 282.700433 0 511.82939-229.128957 511.82939-511.82939S794.529823 0 511.82939 0" fill="#CC2127" p-id="6015"></path></svg>