<?xml version="1.0" standalone="no"?><!DOCTYPE svg PUBLIC "-//W3C//DTD SVG 1.1//EN" "http://www.w3.org/Graphics/SVG/1.1/DTD/svg11.dtd"><svg t="1557305063565" class="icon" style="" viewBox="0 0 1024 1024" version="1.1" xmlns="http://www.w3.org/2000/svg" p-id="2439" xmlns:xlink="http://www.w3.org/1999/xlink" width="32" height="32"><defs><style type="text/css"></style></defs><path d="M405.5 611.3c-22.1 11.2-33.2 6.5-36.2 6.5-21 0-113.8-196.4-89.1-211.4 24.5-15 87.2 73 123.1 76.8 29.7 3 357.6-156.3 470.4-211.6-82.3-88.5-213.5-146-361.7-146-248.9 0-450.8 162.1-450.8 362.2 0 105.4 55.8 199.9 145.2 266.1 12 14.2 22.1 28.3 21.5 36-0.8 19.6-31.6 104.3-16.1 107.6 37.9 8.4 104.3-56.1 128.8-54.2 14.2 1.1 46.8-0.5 71.9-2.2 31.9 5.7 65.1 9 99.4 9 248.9 0 450.8-162.1 450.8-362.2 0-59.6-18-115.8-49.6-165.1-4.5 2.5-382.6 225-507.6 288.5z" p-id="2440" fill="#39b54a"></path></svg>