<svg id="icon_notification" data-name="icon/notification" xmlns="http://www.w3.org/2000/svg" width="25.107" height="28" viewBox="0 0 25.107 28">
  <path id="notification" d="M27.064,19.384l-2.607-2.607V12.336a9.723,9.723,0,0,0-8.69-9.655V.75H13.837V2.681a9.8,9.8,0,0,0-8.69,9.655v4.441L2.54,19.384a.878.878,0,0,0-.29.676v2.9a.908.908,0,0,0,.966.966H9.975a4.828,4.828,0,1,0,9.655,0h6.759a.908.908,0,0,0,.966-.966v-2.9a.878.878,0,0,0-.29-.676ZM14.8,26.819a2.9,2.9,0,0,1-2.9-2.9H17.7A2.9,2.9,0,0,1,14.8,26.819Zm10.621-4.828H4.181V20.447L6.788,17.84a.878.878,0,0,0,.29-.676V12.336a7.724,7.724,0,1,1,15.448,0v4.828a.878.878,0,0,0,.29.676l2.607,2.607Z" transform="translate(-2.248 -0.75)" fill="#d15b4c"/>
</svg>
