<svg id="icon_guided-tour" data-name="icon/guided-tour" xmlns="http://www.w3.org/2000/svg" width="32.516" height="35" viewBox="0 0 32.516 35">
  <g id="Group_2702" data-name="Group 2702" transform="translate(0.447 1.205)">
    <path id="Path_2136" data-name="Path 2136" d="M205.039,428.54a62.568,62.568,0,0,1-7.854-.528,1.318,1.318,0,0,1-1.137-1.307V406.942A1.32,1.32,0,0,1,198,405.783c.084.045,5.1,2.625,13.256-.093,9.373-3.128,15.931.612,16.207.774a1.32,1.32,0,0,1,.654,1.14V426.26a1.319,1.319,0,0,1-1.59,1.292c-.085-.017-8.613-1.758-13.43-.047A25.669,25.669,0,0,1,205.039,428.54Zm-6.349-3.007c2.719.293,9.653.857,13.523-.519,4.193-1.486,10.371-.787,13.262-.33V408.421a18.611,18.611,0,0,0-13.384-.225c-6.279,2.094-10.942,1.392-13.4.665Z" transform="translate(-196.049 -404.447)" fill="#684e9c"/>
  </g>
  <g id="Group_2703" data-name="Group 2703" transform="translate(9.59 6.596)">
    <path id="Path_2137" data-name="Path 2137" d="M207.938,422.81a.945.945,0,0,1-.934-1.08l.528-3.618-2.64-2.564a.943.943,0,0,1,.42-1.59l3.856-1L210.682,410a.94.94,0,0,1,.831-.513h.007a.944.944,0,0,1,.832.5l1.52,2.937,3.857,1a.943.943,0,0,1,.42,1.589l-2.64,2.565.527,3.619a.942.942,0,0,1-1.334.989l-3.18-1.489-3.181,1.514A.933.933,0,0,1,207.938,422.81Zm-.53-7.449,1.784,1.733a.944.944,0,0,1,.276.813l-.342,2.349,1.99-.948a.945.945,0,0,1,.806,0l2,.936-.344-2.362a.942.942,0,0,1,.276-.812l1.783-1.733-2.643-.687a.942.942,0,0,1-.6-.483l-.861-1.676-.873,1.7a.943.943,0,0,1-.6.483Z" transform="translate(-204.605 -409.491)" fill="#a495c4"/>
  </g>
  <g id="Group_2704" data-name="Group 2704">
    <path id="Path_2138" data-name="Path 2138" d="M196.95,438.318A1.32,1.32,0,0,1,195.629,437V404.639a1.321,1.321,0,0,1,2.641,0V437A1.321,1.321,0,0,1,196.95,438.318Z" transform="translate(-195.629 -403.318)" fill="#684e9c"/>
  </g>
</svg>
