<svg id="icon_shopping-bag" data-name="icon/shopping-bag" xmlns="http://www.w3.org/2000/svg" width="30.746" height="25.994" viewBox="0 0 30.746 25.994">
  <path id="shopping-bag" d="M33.813,13.185a1.182,1.182,0,0,0-.9-.414h-7.09V8.045A3.545,3.545,0,0,0,22.281,4.5h-7.09a3.545,3.545,0,0,0-3.545,3.545v4.726H4.557A1.182,1.182,0,0,0,3.376,14.13L5.6,28.487A2.363,2.363,0,0,0,7.96,30.495H29.537A2.363,2.363,0,0,0,31.9,28.487L34.1,14.13A1.182,1.182,0,0,0,33.813,13.185Zm-19.8-5.14a1.182,1.182,0,0,1,1.182-1.182h7.09a1.182,1.182,0,0,1,1.182,1.182v4.726H14.01ZM29.537,28.132H7.937l-2-13H31.532Z" transform="translate(-3.362 -4.5)" fill="#d15b4c"/>
</svg>
