<svg id="icon_shopping_cart" data-name="icon/shopping cart" xmlns="http://www.w3.org/2000/svg" width="24" height="24" viewBox="0 0 24 24">
  <path id="Path_4" data-name="Path 4" d="M0,2.917A.667.667,0,0,1,.667,2.25h2a.667.667,0,0,1,.647.505l.54,2.161h15.48a.667.667,0,0,1,.654.8L18.654,12.38a.667.667,0,0,1-.62.535L5.5,13.544l.382,2.039H17.333a.667.667,0,0,1,0,1.333h-12a.667.667,0,0,1-.655-.544l-2-10.647L2.147,3.583H.667A.667.667,0,0,1,0,2.917ZM4.136,6.25l1.12,5.972,12.192-.612L18.52,6.25ZM6.667,16.917a2.667,2.667,0,1,0,2.667,2.667A2.667,2.667,0,0,0,6.667,16.917Zm9.333,0a2.667,2.667,0,1,0,2.667,2.667A2.667,2.667,0,0,0,16,16.917ZM6.667,18.25A1.333,1.333,0,1,0,8,19.583,1.333,1.333,0,0,0,6.667,18.25Zm9.333,0a1.333,1.333,0,1,0,1.333,1.333A1.333,1.333,0,0,0,16,18.25Z" transform="translate(2 -0.25)" fill="#1b1c1e" fill-rule="evenodd"/>
  <rect id="Area_ICON:feather_menu_SIZE:LARGE_STYLE:STYLE1_" data-name="Area [ICON:feather/menu][SIZE:LARGE][STYLE:STYLE1]" width="24" height="24" fill="#fcfcfc" opacity="0"/>
</svg>
