<svg id="icon_receipt" data-name="icon/receipt" xmlns="http://www.w3.org/2000/svg" width="18.017" height="17.166" viewBox="0 0 18.017 17.166">
  <path id="Path_8" data-name="Path 8" d="M2.434.632a.7.7,0,0,1,.558.16l.832.74L4.655.791a.7.7,0,0,1,.911,0l.832.741L7.228.791a.7.7,0,0,1,.911,0l.832.741L9.8.791a.7.7,0,0,1,.911,0l.832.741.831-.741a.7.7,0,0,1,.911,0l.831.741.831-.741a.7.7,0,0,1,.911,0l.831.741.831-.741a.7.7,0,0,1,.558-.16.642.642,0,0,1,.472.309L19.2,2.085a.522.522,0,0,1,.071.256v13.73a.521.521,0,0,1-.068.256l-.643,1.144a.642.642,0,0,1-.472.309.7.7,0,0,1-.558-.159l-.833-.741-.831.741a.7.7,0,0,1-.911,0l-.832-.741-.831.741a.7.7,0,0,1-.911,0l-.832-.741-.831.741a.7.7,0,0,1-.911,0l-.832-.741-.831.741a.7.7,0,0,1-.911,0L6.4,16.881l-.831.741a.7.7,0,0,1-.911,0l-.832-.741-.831.741a.7.7,0,0,1-.558.16.642.642,0,0,1-.472-.309l-.643-1.144a.521.521,0,0,1-.069-.256V2.341a.521.521,0,0,1,.068-.256L1.961.941A.642.642,0,0,1,2.434.631Zm.279,1.531-.176.312v13.46l.176.314.656-.583a.7.7,0,0,1,.91,0l.831.741.831-.739a.7.7,0,0,1,.911,0l.831.739.831-.739a.7.7,0,0,1,.911,0l.831.739.831-.739a.7.7,0,0,1,.911,0l.831.739.831-.739a.7.7,0,0,1,.911,0l.831.739.831-.739a.7.7,0,0,1,.911,0l.655.582.176-.314V2.476L17.8,2.162l-.656.583a.7.7,0,0,1-.91,0l-.826-.739-.831.741a.7.7,0,0,1-.911,0l-.832-.741L12,2.747a.7.7,0,0,1-.911,0l-.832-.741-.831.741a.7.7,0,0,1-.911,0l-.832-.741-.831.741a.7.7,0,0,1-.911,0l-.832-.741-.831.741a.7.7,0,0,1-.911,0l-.655-.583Z" transform="translate(-1.25 -0.623)" fill="#d15b4c" fill-rule="evenodd"/>
  <path id="Path_9" data-name="Path 9" d="M3.75,5.532A.607.607,0,0,1,4.411,5h7.938a.607.607,0,0,1,.661.532.607.607,0,0,1-.661.532H4.411A.607.607,0,0,1,3.75,5.532Zm0,2.128a.607.607,0,0,1,.661-.532h7.938a.607.607,0,0,1,.661.532.607.607,0,0,1-.661.532H4.411A.607.607,0,0,1,3.75,7.66Zm0,2.128a.607.607,0,0,1,.661-.532h7.938a.607.607,0,0,1,.661.532.607.607,0,0,1-.661.532H4.411A.607.607,0,0,1,3.75,9.788Zm0,2.128a.607.607,0,0,1,.661-.532h7.938a.607.607,0,0,1,.661.532.607.607,0,0,1-.661.532H4.411A.607.607,0,0,1,3.75,11.916ZM14.334,5.532A.607.607,0,0,1,15,5h1.323a.607.607,0,0,1,.661.532.607.607,0,0,1-.661.532H15A.607.607,0,0,1,14.334,5.532Zm0,2.128A.607.607,0,0,1,15,7.128h1.323a.607.607,0,0,1,.661.532.607.607,0,0,1-.661.532H15A.607.607,0,0,1,14.334,7.66Zm0,2.128A.607.607,0,0,1,15,9.256h1.323a.607.607,0,0,1,.661.532.607.607,0,0,1-.661.532H15A.607.607,0,0,1,14.334,9.788Zm0,2.128A.607.607,0,0,1,15,11.384h1.323a.607.607,0,0,1,.661.532.607.607,0,0,1-.661.532H15A.607.607,0,0,1,14.334,11.916Z" transform="translate(-1.356 -0.748)" fill="#d15b4c" fill-rule="evenodd"/>
</svg>
