<svg id="icon_youtube-play" data-name="icon/youtube-play" xmlns="http://www.w3.org/2000/svg" width="21.334" height="15" viewBox="0 0 21.334 15">
  <path id="youtube-play" d="M8.463,10.463l5.762-2.976L8.463,4.475v5.988ZM10.666.2q2,0,3.863.053t2.732.113l.869.047.2.018a2.643,2.643,0,0,1,.274.036q.083.018.28.053a1.636,1.636,0,0,1,.34.1q.143.06.334.155A2.231,2.231,0,0,1,19.929,1a2.932,2.932,0,0,1,.345.315,2.24,2.24,0,0,1,.184.22,4.053,4.053,0,0,1,.345.7,4.489,4.489,0,0,1,.315,1.2q.1.762.149,1.625t.065,1.352v2.1a25.192,25.192,0,0,1-.215,3.452,4.767,4.767,0,0,1-.3,1.185,3,3,0,0,1-.381.732l-.167.2a2.806,2.806,0,0,1-.345.315,2.031,2.031,0,0,1-.369.226q-.19.089-.334.149a1.7,1.7,0,0,1-.34.1l-.286.053q-.089.017-.274.036t-.2.018q-2.988.226-7.464.226-2.464-.024-4.28-.078T4,15.034l-.583-.047-.428-.047a5.574,5.574,0,0,1-.649-.119,3.691,3.691,0,0,1-.607-.25,2.371,2.371,0,0,1-.673-.488,2.24,2.24,0,0,1-.184-.22,4.053,4.053,0,0,1-.345-.7,4.489,4.489,0,0,1-.315-1.2q-.1-.762-.149-1.625T0,8.987v-2.1A25.191,25.191,0,0,1,.214,3.439a4.767,4.767,0,0,1,.3-1.185,3,3,0,0,1,.381-.732l.167-.2A2.806,2.806,0,0,1,1.4,1,2.332,2.332,0,0,1,1.773.772q.19-.1.334-.155a1.716,1.716,0,0,1,.34-.1l.28-.053Q2.81.452,3,.433T3.2.416Q6.19.2,10.667.2Z" transform="translate(0.001 -0.201)" fill="#1b1c1e"/>
</svg>
