<svg id="icon_private-cabin" data-name="icon/private-cabin" xmlns="http://www.w3.org/2000/svg" width="28.323" height="35" viewBox="0 0 28.323 35">
  <g id="Group_2688" data-name="Group 2688" transform="translate(12.664 5.821)">
    <g id="Group_2687" data-name="Group 2687">
      <path id="Path_2126" data-name="Path 2126" d="M321.221,450.56a1.5,1.5,0,0,1-1.5-1.5V435.8a1.5,1.5,0,1,1,3,0v13.266A1.5,1.5,0,0,1,321.221,450.56Z" transform="translate(-319.722 -434.297)" fill="#c8e09d"/>
    </g>
  </g>
  <g id="Group_2690" data-name="Group 2690" transform="translate(2.111 19.696)">
    <g id="Group_2689" data-name="Group 2689">
      <path id="Path_2127" data-name="Path 2127" d="M334.051,448.418H313.158a1.5,1.5,0,1,1,0-3h20.894a1.5,1.5,0,1,1,0,3Z" transform="translate(-311.552 -445.421)" fill="#c8e09d"/>
    </g>
  </g>
  <g id="Group_2692" data-name="Group 2692" transform="translate(0 10.166)">
    <g id="Group_2691" data-name="Group 2691">
      <path id="Path_2128" data-name="Path 2128" d="M333.983,463.3H313.9a1.585,1.585,0,0,1-1.423-.905,25.813,25.813,0,0,1,.054-23.128,1.581,1.581,0,0,1,1.369-.8h20.08a1.58,1.58,0,0,1,1.369.8,25.8,25.8,0,0,1,.054,23.128A1.585,1.585,0,0,1,333.983,463.3Zm-19.073-3.259h18.067a22.635,22.635,0,0,0,.038-18.317H314.872A22.65,22.65,0,0,0,314.91,460.036Z" transform="translate(-309.782 -438.461)" fill="#93c867"/>
    </g>
  </g>
  <g id="Group_2694" data-name="Group 2694" transform="translate(1.439 4.045)">
    <g id="Group_2693" data-name="Group 2693">
      <path id="Path_2129" data-name="Path 2129" d="M334.755,436.325H312.589a1.5,1.5,0,1,1,0-3h22.166a1.5,1.5,0,1,1,0,3Z" transform="translate(-310.988 -433.328)" fill="#93c867"/>
    </g>
  </g>
  <g id="Group_2697" data-name="Group 2697" transform="translate(18.293)">
    <g id="Group_2695" data-name="Group 2695" transform="translate(0.595 0.596)">
      <circle id="Ellipse_28" data-name="Ellipse 28" cx="1.435" cy="1.435" r="1.435" transform="translate(0.597 0.598)" fill="#93c867"/>
      <path id="Path_2130" data-name="Path 2130" d="M326.575,434.5a2.032,2.032,0,1,1,2.031-2.031A2.034,2.034,0,0,1,326.575,434.5Zm0-2.869a.837.837,0,1,0,.837.838A.839.839,0,0,0,326.575,431.632Z" transform="translate(-324.543 -430.437)" fill="#93c867"/>
    </g>
    <g id="Group_2696" data-name="Group 2696">
      <path id="Path_2131" data-name="Path 2131" d="M326.575,434.5a2.031,2.031,0,1,1,2.032-2.031A2.033,2.033,0,0,1,326.575,434.5Zm0-2.869a.838.838,0,1,0,.84.838A.84.84,0,0,0,326.575,431.631Z" transform="translate(-323.948 -429.841)" fill="#93c867"/>
      <path id="Path_2132" data-name="Path 2132" d="M326.671,435.194a2.628,2.628,0,1,1,2.628-2.63A2.632,2.632,0,0,1,326.671,435.194Zm0-2.871a.242.242,0,0,0-.241.241c0,.269.483.269.483,0A.242.242,0,0,0,326.671,432.323Z" transform="translate(-324.044 -429.937)" fill="#93c867"/>
    </g>
  </g>
  <g id="Group_2700" data-name="Group 2700" transform="translate(4.961 0.002)">
    <g id="Group_2698" data-name="Group 2698" transform="translate(0.596 0.595)">
      <circle id="Ellipse_29" data-name="Ellipse 29" cx="1.435" cy="1.435" r="1.435" transform="translate(0.597 0.598)" fill="#93c867"/>
      <path id="Path_2133" data-name="Path 2133" d="M316.18,434.5a2.033,2.033,0,1,1,2.033-2.032A2.035,2.035,0,0,1,316.18,434.5Zm0-2.87a.838.838,0,1,0,.838.838A.838.838,0,0,0,316.18,431.632Z" transform="translate(-314.149 -430.437)" fill="#93c867"/>
    </g>
    <g id="Group_2699" data-name="Group 2699">
      <path id="Path_2134" data-name="Path 2134" d="M316.181,434.5a2.032,2.032,0,1,1,2.031-2.032A2.033,2.033,0,0,1,316.181,434.5Zm0-2.87a.838.838,0,1,0,.838.838A.84.84,0,0,0,316.181,431.631Z" transform="translate(-313.553 -429.842)" fill="#93c867"/>
      <path id="Path_2135" data-name="Path 2135" d="M316.279,435.194a2.628,2.628,0,1,1,2.627-2.627A2.632,2.632,0,0,1,316.279,435.194Zm0-2.869a.243.243,0,0,0-.243.242c0,.266.484.267.484,0A.242.242,0,0,0,316.279,432.324Z" transform="translate(-313.649 -429.938)" fill="#93c867"/>
    </g>
  </g>
</svg>
