<svg id="icon_annual-pass" data-name="icon/annual-pass" xmlns="http://www.w3.org/2000/svg" width="30.678" height="24.59" viewBox="0 0 30.678 24.59">
  <g id="Group_2710" data-name="Group 2710" transform="translate(-269.007 -401.283)">
    <path id="Path_2139" data-name="Path 2139" d="M298.5,425.872H270.19a1.183,1.183,0,0,1-1.183-1.182V405.978a1.183,1.183,0,0,1,1.183-1.183H298.5a1.183,1.183,0,0,1,1.183,1.183V424.69A1.183,1.183,0,0,1,298.5,425.872Zm-27.128-2.365h25.945V407.161H271.374Z" fill="#dbb35e"/>
  </g>
  <g id="Group_2711" data-name="Group 2711" transform="translate(-269.007 -401.283)">
    <path id="Path_2140" data-name="Path 2140" d="M276.39,411.276a3.755,3.755,0,0,1,2.371.643,2.09,2.09,0,0,1,.813,1.728,1.773,1.773,0,0,1-.345,1.1,2.263,2.263,0,0,1-.82.684,2.628,2.628,0,0,1,.528.271,1.872,1.872,0,0,1,.434.406,1.917,1.917,0,0,1,.3.57,2.413,2.413,0,0,1,.108.759,2.148,2.148,0,0,1-.25,1.043,2.376,2.376,0,0,1-.7.786,3.256,3.256,0,0,1-1.064.5,5.114,5.114,0,0,1-1.348.169,4.547,4.547,0,0,1-2.127-.393,1.15,1.15,0,0,1-.718-1,1.1,1.1,0,0,1,.176-.63,1.3,1.3,0,0,1,.433-.413,4.9,4.9,0,0,0,.725.4,2.864,2.864,0,0,0,1.186.21,1.729,1.729,0,0,0,1.023-.244.757.757,0,0,0,.332-.637.705.705,0,0,0-.264-.6,1.542,1.542,0,0,0-.915-.2h-1.274a1.533,1.533,0,0,1-.162-.365,1.746,1.746,0,0,1-.068-.515,2.043,2.043,0,0,1,.061-.536,1.163,1.163,0,0,1,.169-.372h1.274q.975,0,.976-.745a.666.666,0,0,0-.312-.57,1.648,1.648,0,0,0-.935-.216,3.331,3.331,0,0,0-.976.129,2.434,2.434,0,0,0-.69.318,1.38,1.38,0,0,1-.38-.4,1.036,1.036,0,0,1-.149-.562,1.047,1.047,0,0,1,.7-1A4.646,4.646,0,0,1,276.39,411.276Z" fill="#e6cf9e"/>
    <path id="Path_2141" data-name="Path 2141" d="M286.8,412.482a1.235,1.235,0,0,1-.129.548,1.107,1.107,0,0,1-.3.4,3.965,3.965,0,0,0-.765-.251,3.5,3.5,0,0,0-.739-.088,1.728,1.728,0,0,0-1.253.427,2.222,2.222,0,0,0-.589,1.226,2.972,2.972,0,0,1,.718-.345,2.776,2.776,0,0,1,.921-.156,2.524,2.524,0,0,1,2.723,2.778,3.061,3.061,0,0,1-.2,1.111,2.594,2.594,0,0,1-.61.928,2.969,2.969,0,0,1-1.009.636,3.8,3.8,0,0,1-1.4.238,3.132,3.132,0,0,1-2.514-1.071,4.56,4.56,0,0,1-.914-3.048,6.4,6.4,0,0,1,.277-1.978,3.915,3.915,0,0,1,.787-1.423A3.211,3.211,0,0,1,283,411.56a4.119,4.119,0,0,1,1.558-.284,3.707,3.707,0,0,1,1.66.3A.968.968,0,0,1,286.8,412.482ZM284.14,416a1.589,1.589,0,0,0-.549.108,1.192,1.192,0,0,0-.467.3v.338a1.465,1.465,0,0,0,.3,1.044.993.993,0,0,0,.738.312.787.787,0,0,0,.671-.3,1.255,1.255,0,0,0,.224-.773,1.126,1.126,0,0,0-.237-.752A.852.852,0,0,0,284.14,416Z" fill="#e6cf9e"/>
    <path id="Path_2142" data-name="Path 2142" d="M295.549,415.6a5.881,5.881,0,0,1-.271,1.856,3.935,3.935,0,0,1-.752,1.362,3.167,3.167,0,0,1-1.152.834,3.913,3.913,0,0,1-2.927,0,3.155,3.155,0,0,1-1.151-.834,3.846,3.846,0,0,1-.746-1.362,6.636,6.636,0,0,1,0-3.706,3.857,3.857,0,0,1,.746-1.355,3.153,3.153,0,0,1,1.151-.833,3.913,3.913,0,0,1,2.927,0,3.165,3.165,0,0,1,1.152.833,3.947,3.947,0,0,1,.752,1.355A5.824,5.824,0,0,1,295.549,415.6Zm-2.317,0a3.986,3.986,0,0,0-.346-1.843,1.071,1.071,0,0,0-.982-.65,1.044,1.044,0,0,0-.969.65,5.3,5.3,0,0,0,0,3.692,1.045,1.045,0,0,0,.969.658,1.071,1.071,0,0,0,.982-.658A4.025,4.025,0,0,0,293.232,415.6Z" fill="#e6cf9e"/>
  </g>
  <g id="Group_2714" data-name="Group 2714" transform="translate(-269.007 -401.283)">
    <g id="Group_2712" data-name="Group 2712">
      <path id="Rectangle_202" data-name="Rectangle 202" d="M3.091,0h0A3.091,3.091,0,0,1,6.181,3.091V7.117a.433.433,0,0,1-.433.433H.433A.433.433,0,0,1,0,7.117V3.091A3.091,3.091,0,0,1,3.091,0Z" transform="translate(281.256 401.283)" fill="#dbb35e"/>
    </g>
    <g id="Group_2713" data-name="Group 2713">
      <circle id="Ellipse_30" data-name="Ellipse 30" cx="1.163" cy="1.163" r="1.163" transform="translate(283.184 402.973)" fill="#fff"/>
    </g>
  </g>
</svg>
