<svg id="icon_pen" data-name="icon/pen" xmlns="http://www.w3.org/2000/svg" width="16.001" height="16" viewBox="0 0 16.001 16">
  <path id="pen" d="M12.563,2,6.94,7.627a21.832,21.832,0,0,0-5.209,8.379.839.839,0,0,0,.2.869l0,0a.839.839,0,0,0,.595.248.85.85,0,0,0,.274-.046,21.831,21.831,0,0,0,8.379-5.209l5.623-5.622A3,3,0,0,0,12.563,2Zm-2.144,9.1a20.756,20.756,0,0,1-7.5,4.788A20.755,20.755,0,0,1,7.7,8.391l3.349-3.349,2.715,2.715Zm5.623-5.623L14.533,6.992,11.818,4.277l1.509-1.509a1.92,1.92,0,1,1,2.715,2.715Z" transform="translate(-1.685 -1.125)" fill="#d15b4c"/>
</svg>
