<svg id="icon_tripadvisor" data-name="icon/tripadvisor" xmlns="http://www.w3.org/2000/svg" width="22.153" height="13" viewBox="0 0 22.153 13">
  <path id="tripadvisor" d="M6.26,7.909A.871.871,0,0,1,6,8.548a.86.86,0,0,1-.63.265.9.9,0,0,1-.9-.9.858.858,0,0,1,.265-.63.874.874,0,0,1,.639-.265.9.9,0,0,1,.894.894Zm11.1-.01a.9.9,0,1,1-1.807,0,.859.859,0,0,1,.265-.634.917.917,0,0,1,1.279,0,.857.857,0,0,1,.265.634Zm-10,.01A1.863,1.863,0,0,0,5.5,6.053,1.855,1.855,0,0,0,3.644,7.909,1.855,1.855,0,0,0,5.5,9.765,1.854,1.854,0,0,0,7.356,7.909ZM18.442,7.9a1.856,1.856,0,1,0-3.168,1.313A1.856,1.856,0,0,0,18.442,7.9Zm-10.27.01A2.676,2.676,0,0,1,5.5,10.592,2.684,2.684,0,0,1,2.817,7.909,2.562,2.562,0,0,1,3.606,6.02,2.6,2.6,0,0,1,5.5,5.236,2.675,2.675,0,0,1,8.173,7.909Zm11.1-.01A2.679,2.679,0,0,1,14.7,9.789a2.669,2.669,0,0,1,0-3.778A2.678,2.678,0,0,1,19.27,7.9ZM10,7.928a4.281,4.281,0,0,0-1.3-3.14,4.273,4.273,0,0,0-3.139-1.3,4.32,4.32,0,0,0-2.221.6A4.429,4.429,0,0,0,1.721,5.7a4.452,4.452,0,0,0,0,4.452,4.434,4.434,0,0,0,1.615,1.62,4.312,4.312,0,0,0,2.221.6,4.281,4.281,0,0,0,3.14-1.3A4.276,4.276,0,0,0,10,7.928Zm6.423-5.51a13.209,13.209,0,0,0-5.346-1.067,13.732,13.732,0,0,0-5.51,1.058,5.378,5.378,0,0,1,2.144.438A5.517,5.517,0,0,1,9.466,4.024a5.576,5.576,0,0,1,1.173,1.759,5.406,5.406,0,0,1,.438,2.144A5.544,5.544,0,0,1,12.63,4.082,5.642,5.642,0,0,1,14.337,2.9a5.315,5.315,0,0,1,2.087-.481Zm4.606,5.51a4.289,4.289,0,0,0-1.3-3.14,4.429,4.429,0,0,0-6.274,0,4.273,4.273,0,0,0-1.3,3.139,4.281,4.281,0,0,0,1.3,3.14,4.429,4.429,0,0,0,6.274,0,4.292,4.292,0,0,0,1.3-3.14ZM18.471,2.485h3.682a5.092,5.092,0,0,0-.721,1.1,4.231,4.231,0,0,0-.384,1.1,5.372,5.372,0,0,1,1.058,3.241,5.4,5.4,0,0,1-.74,2.769,5.459,5.459,0,0,1-2.01,2,5.507,5.507,0,0,1-7.039-1.294,21.205,21.205,0,0,0-1.241,1.721,7.942,7.942,0,0,0-.514-.793q-.409-.582-.716-.938a5.494,5.494,0,0,1-4.289,2.039A5.5,5.5,0,0,1,.788,10.7a5.394,5.394,0,0,1-.74-2.769A5.374,5.374,0,0,1,1.106,4.687a4.252,4.252,0,0,0-.385-1.1A5.078,5.078,0,0,0,0,2.486H3.51A11.572,11.572,0,0,1,6.923.981,15.617,15.617,0,0,1,11.077.438a14.743,14.743,0,0,1,4.048.538,11.76,11.76,0,0,1,3.346,1.51Z" transform="translate(0 -0.438)" fill="#1b1c1e"/>
</svg>
