<svg id="icon_close-o" data-name="icon/close-o" xmlns="http://www.w3.org/2000/svg" width="9" height="9" viewBox="0 0 9 9">
  <path id="Path_1808" data-name="Path 1808" d="M9.791,6.926a.408.408,0,0,0-.557-.6L8.04,7.442,6.927,6.248a.408.408,0,0,0-.6.557L7.443,8,6.249,9.112a.408.408,0,0,0,.557.6L8,8.6,9.113,9.789a.408.408,0,1,0,.6-.556L8.6,8.039,9.79,6.926Z" transform="translate(-3.52 -3.519)" fill="#1b1c1e"/>
  <path id="Path_1809" data-name="Path 1809" d="M.833,5.333a4.5,4.5,0,1,1,4.5,4.5A4.5,4.5,0,0,1,.833,5.333Zm4.5,3.682A3.682,3.682,0,1,1,9.015,5.333,3.682,3.682,0,0,1,5.333,9.015Z" transform="translate(-0.833 -0.833)" fill="#1b1c1e" fill-rule="evenodd"/>
</svg>
