<svg id="icon_hot-deals" data-name="icon/hot-deals" xmlns="http://www.w3.org/2000/svg" width="29.409" height="35" viewBox="0 0 29.409 35">
  <g id="Group_2639" data-name="Group 2639">
    <path id="Path_2094" data-name="Path 2094" d="M54.621,54.864a1.419,1.419,0,0,1-.535-2.734c2.929-1.187,5.3-5.462,5.408-9.73.137-5.606-3.875-11.371-12.953-18.522-1.017,4.672-3.655,7.7-6.022,10.42-2.553,2.93-4.757,5.462-4.757,9.591a8.134,8.134,0,0,0,7.672,8.138,1.418,1.418,0,0,1,0,2.835A11.051,11.051,0,0,1,32.927,43.889c0-5.19,2.772-8.374,5.453-11.453,2.6-2.981,5.28-6.063,5.7-11.267a1.417,1.417,0,0,1,2.266-1.019C57.571,28.594,62.5,35.479,62.331,42.469c-.134,5.488-3.154,10.657-7.177,12.29A1.432,1.432,0,0,1,54.621,54.864Z" transform="translate(-32.927 -19.864)" fill="#bc2b13"/>
  </g>
  <g id="Group_2640" data-name="Group 2640" transform="translate(6.998 10.771)">
    <path id="Path_2095" data-name="Path 2095" d="M40.714,45.086a1.4,1.4,0,0,1-.7-.185,5.9,5.9,0,0,1-2.575-3.483c-.559-2.024-.119-4.325,1.31-6.835a1.423,1.423,0,0,1,1.192-.716,1.47,1.47,0,0,1,1.231.646c1.194,1.84,2.093,2.214,2.291,2.134.507-.2,1.58-2.592.549-8.537a1.417,1.417,0,0,1,2.3-1.336c6.317,5.207,7.8,11.811,3.977,17.668a1.418,1.418,0,1,1-2.374-1.55c2.917-4.466,1.5-8.351-.646-11.123.157,4.077-.8,6.745-2.77,7.519-.845.33-2.369.487-4.18-1.3a4.734,4.734,0,0,0-.146,2.68,3.151,3.151,0,0,0,1.236,1.769,1.419,1.419,0,0,1-.7,2.654Z" transform="translate(-37.207 -26.45)" fill="#e46258"/>
  </g>
</svg>
