<svg id="icon_facebook" data-name="icon/facebook" xmlns="http://www.w3.org/2000/svg" width="15" height="15" viewBox="0 0 15 15">
  <path id="facebook" d="M13.294,18V12.191h1.95l.292-2.263H13.293V8.483c0-.655.182-1.1,1.123-1.1h1.2V5.355a16.043,16.043,0,0,0-1.747-.09,2.727,2.727,0,0,0-2.911,2.993v1.67H9v2.264h1.955V18H3.828A.828.828,0,0,1,3,17.172V3.828A.828.828,0,0,1,3.828,3H17.172A.828.828,0,0,1,18,3.828V17.172a.828.828,0,0,1-.828.828Z" transform="translate(-3 -3)" fill="#1b1c1e" fill-rule="evenodd"/>
</svg>
