<svg id="icon_ticket" data-name="icon/ticket" xmlns="http://www.w3.org/2000/svg" width="35.016" height="35" viewBox="0 0 35.016 35">
  <g id="Group_2642" data-name="Group 2642" transform="translate(12.799 5.549)">
    <path id="Path_2096" data-name="Path 2096" d="M68.916,28.661a1.367,1.367,0,0,1-.969-.4l-1.669-1.67a1.371,1.371,0,0,1,1.937-1.939l1.67,1.67a1.371,1.371,0,0,1-.97,2.34Z" transform="translate(-65.877 -24.249)" fill="#83a6d7"/>
  </g>
  <g id="Group_2643" data-name="Group 2643" transform="translate(17.25 10)">
    <path id="Path_2097" data-name="Path 2097" d="M71.177,30.92a1.36,1.36,0,0,1-.969-.4L69.1,29.406a1.371,1.371,0,0,1,1.937-1.939l1.113,1.114a1.37,1.37,0,0,1-.969,2.339Z" transform="translate(-68.694 -27.066)" fill="#83a6d7"/>
  </g>
  <g id="Group_2644" data-name="Group 2644" transform="translate(21.146 13.896)">
    <path id="Path_2098" data-name="Path 2098" d="M73.642,33.385a1.36,1.36,0,0,1-.969-.4l-1.113-1.113A1.371,1.371,0,0,1,73.5,29.932l1.113,1.114a1.37,1.37,0,0,1-.969,2.339Z" transform="translate(-71.159 -29.531)" fill="#83a6d7"/>
  </g>
  <g id="Group_2645" data-name="Group 2645" transform="translate(25.041 17.791)">
    <path id="Path_2099" data-name="Path 2099" d="M76.663,36.407a1.36,1.36,0,0,1-.969-.4l-1.67-1.669A1.371,1.371,0,0,1,75.963,32.4l1.669,1.67a1.37,1.37,0,0,1-.969,2.339Z" transform="translate(-73.623 -31.996)" fill="#83a6d7"/>
  </g>
  <g id="Group_2646" data-name="Group 2646">
    <path id="Path_2100" data-name="Path 2100" d="M73.06,55.738a1.375,1.375,0,0,1-.969-.4,1.817,1.817,0,0,0-2.513,0,1.379,1.379,0,0,1-.97.4h0a1.375,1.375,0,0,1-.969-.4l-9.46-9.46a1.372,1.372,0,0,1,0-1.939,1.774,1.774,0,0,0,0-2.513,1.371,1.371,0,0,1,0-1.939L76.543,21.123a1.411,1.411,0,0,1,1.937,0,1.819,1.819,0,0,0,2.514,0,1.411,1.411,0,0,1,1.937,0l9.46,9.46a1.372,1.372,0,0,1,0,1.939,1.778,1.778,0,0,0,0,2.513,1.371,1.371,0,0,1,0,1.939L74.03,55.337A1.379,1.379,0,0,1,73.06,55.738Zm-2.225-3.663a4.5,4.5,0,0,1,2.077.5L89.634,35.855a4.529,4.529,0,0,1,0-4.153l-7.819-7.819a4.613,4.613,0,0,1-4.155,0L60.939,40.605a4.541,4.541,0,0,1,0,4.153l7.819,7.819A4.5,4.5,0,0,1,70.835,52.075Z" transform="translate(-57.778 -20.738)" fill="#2875bc"/>
  </g>
</svg>
