<svg id="icon_password" data-name="icon/password" xmlns="http://www.w3.org/2000/svg" width="30.042" height="30" viewBox="0 0 30.042 30">
  <path id="Path_1832" data-name="Path 1832" d="M22.607,2.25a9.643,9.643,0,0,0-9.643,9.643,9.5,9.5,0,0,0,.418,2.8L2.25,25.821V32.25H8.679L19.811,21.118A9.643,9.643,0,0,0,32.25,12.685a9.4,9.4,0,0,0-1.768-6.429A9.643,9.643,0,0,0,22.607,2.25Zm0,17.143a7.5,7.5,0,0,1-2.143-.321L19.232,18.7l-.91.91-3.408,3.408L13.4,21.536l-1.51,1.51,1.478,1.478-1.7,1.7L10.189,24.75l-1.51,1.51,1.478,1.478L7.789,30.107h-3.4v-3.4l10.5-10.532.91-.91-.31-1.018a7.649,7.649,0,0,1,3.643-9.043,7.5,7.5,0,0,1,10.971,6.429,7.168,7.168,0,0,1-1.168,4.286,7.5,7.5,0,0,1-6.332,3.471Z" transform="translate(-2.25 -2.25)" fill="#d15b4c"/>
  <path id="Path_1833" data-name="Path 1833" d="M26.566,11.033A2.033,2.033,0,1,1,24.533,9,2.033,2.033,0,0,1,26.566,11.033Z" transform="translate(-3.05 -2.516)" fill="#d15b4c"/>
</svg>
