<svg id="icon_package" data-name="icon/package" xmlns="http://www.w3.org/2000/svg" width="35.012" height="40" viewBox="0 0 35.012 40">
  <g id="Group_2648" data-name="Group 2648" transform="translate(0 6.666)">
    <path id="Path_2101" data-name="Path 2101" d="M130.929,54.6H114.593a1.363,1.363,0,0,1-1.363-1.364V25a1.363,1.363,0,0,1,1.363-1.364h17.851a3.727,3.727,0,0,1,3.723,3.723v22A5.244,5.244,0,0,1,130.929,54.6Zm-14.972-2.727h14.972a2.515,2.515,0,0,0,2.512-2.512v-22a1,1,0,0,0-1-1H115.957Z" transform="translate(-113.23 -23.634)" fill="#4daea7"/>
  </g>
  <g id="Group_2649" data-name="Group 2649" transform="translate(5.809 13.96)">
    <path id="Path_2102" data-name="Path 2102" d="M122.582,39.589a5.658,5.658,0,1,1,5.66-5.657A5.665,5.665,0,0,1,122.582,39.589Zm0-8.588a2.931,2.931,0,1,0,2.931,2.931A2.934,2.934,0,0,0,122.582,31Z" transform="translate(-116.924 -28.272)" fill="#9ccfca"/>
  </g>
  <g id="Group_2650" data-name="Group 2650" transform="translate(5.809 27.609)">
    <path id="Path_2103" data-name="Path 2103" d="M126.877,39.68h-8.588a1.364,1.364,0,1,1,0-2.729h8.588a1.364,1.364,0,1,1,0,2.729Z" transform="translate(-116.924 -36.951)" fill="#9ccfca"/>
  </g>
  <path id="Path_2104" data-name="Path 2104" d="M142.217,23.826,125.77,19.439a1.265,1.265,0,0,0-1.535.852l-2.066,6.764a1.264,1.264,0,1,0,2.417.739l1.711-5.6,14.049,3.748-2.339,8.764-7.964-2.125a1.265,1.265,0,1,0-.651,2.444l7.764,2.071L132.018,56.36l-7.091-1.89a1.364,1.364,0,1,0-.7,2.636l8.409,2.243a1.358,1.358,0,0,0,1.669-.966l5.808-21.77c0-.011.013-.02.014-.031l2.99-11.207A1.263,1.263,0,0,0,142.217,23.826Z" transform="translate(-108.145 -19.396)" fill="#4daea7"/>
</svg>
