<svg id="icon_wechat" data-name="icon/wechat" xmlns="http://www.w3.org/2000/svg" width="18.417" height="15" viewBox="0 0 18.417 15">
  <path id="wechat" d="M5.216,4.115A.772.772,0,0,0,4.4,3.3a1.087,1.087,0,0,0-.683.229.712.712,0,0,0-.3.589.7.7,0,0,0,.3.58,1.087,1.087,0,0,0,.683.229.811.811,0,0,0,.593-.22.788.788,0,0,0,.225-.589ZM11.9,8.674a.584.584,0,0,0-.229-.45.869.869,0,0,0-.589-.2.7.7,0,0,0-.648.648.628.628,0,0,0,.2.454.619.619,0,0,0,.445.2.869.869,0,0,0,.589-.2.592.592,0,0,0,.229-.458ZM9.775,4.115a.811.811,0,0,0-.22-.593A.79.79,0,0,0,8.965,3.3a1.087,1.087,0,0,0-.683.229.712.712,0,0,0-.3.589.7.7,0,0,0,.3.58,1.087,1.087,0,0,0,.683.229.759.759,0,0,0,.809-.809Zm5.71,4.559a.58.58,0,0,0-.234-.45.874.874,0,0,0-.585-.2.7.7,0,0,0-.648.648.628.628,0,0,0,.2.454.619.619,0,0,0,.445.2.874.874,0,0,0,.585-.2.588.588,0,0,0,.234-.458ZM13.093,5.1a4.977,4.977,0,0,0-.629-.036,5.771,5.771,0,0,0-2.8.693,5.273,5.273,0,0,0-2.01,1.875,4.813,4.813,0,0,0-.733,2.586,4.583,4.583,0,0,0,.207,1.367q-.315.027-.611.027-.234,0-.45-.013t-.495-.058l-.4-.063q-.121-.018-.49-.095l-.45-.095L1.96,12.433l.648-1.96A5.3,5.3,0,0,1,0,6.066a4.837,4.837,0,0,1,.877-2.8A6.029,6.029,0,0,1,3.251,1.26,7.327,7.327,0,0,1,6.52.527a7.617,7.617,0,0,1,2.99.593,6.567,6.567,0,0,1,2.356,1.641A5.031,5.031,0,0,1,13.093,5.1Zm5.323,5.045a3.659,3.659,0,0,1-.616,2.01,6.71,6.71,0,0,1-1.668,1.74l.495,1.628-1.79-.98a9.321,9.321,0,0,1-1.96.333,6.2,6.2,0,0,1-2.8-.634,5.1,5.1,0,0,1-2.01-1.722,4.212,4.212,0,0,1,0-4.748,5.093,5.093,0,0,1,2.009-1.722,6.2,6.2,0,0,1,2.8-.634,6.046,6.046,0,0,1,2.725.634A5.366,5.366,0,0,1,17.648,7.78a4.035,4.035,0,0,1,.769,2.37Z" transform="translate(0 -0.527)" fill="#1b1c1e"/>
</svg>
