<svg id="icon_instagram" data-name="icon/instagram" xmlns="http://www.w3.org/2000/svg" width="15" height="15" viewBox="0 0 15 15">
  <path id="instagram" d="M10,7.5A2.5,2.5,0,0,0,7.5,5,2.5,2.5,0,0,0,5,7.5,2.5,2.5,0,0,0,7.5,10,2.5,2.5,0,0,0,10,7.5Zm1.347,0A3.834,3.834,0,0,1,7.5,11.347,3.834,3.834,0,0,1,3.653,7.5,3.834,3.834,0,0,1,7.5,3.653,3.834,3.834,0,0,1,11.347,7.5Zm1.055-4a.9.9,0,1,1-1.533-.635A.9.9,0,0,1,12.4,3.5ZM7.5,1.348l-.747-.005q-.679,0-1.03,0t-.943.029a7.7,7.7,0,0,0-1.006.1,3.881,3.881,0,0,0-.7.181A2.554,2.554,0,0,0,1.65,3.076a3.919,3.919,0,0,0-.181.7,7.7,7.7,0,0,0-.1,1.006q-.024.591-.029.942t0,1.03q0,.679,0,.747t0,.747q-.005.679,0,1.03t.029.943a7.7,7.7,0,0,0,.1,1.006,3.9,3.9,0,0,0,.181.7A2.554,2.554,0,0,0,3.076,13.35a3.919,3.919,0,0,0,.7.181,7.7,7.7,0,0,0,1.006.1q.591.024.942.029t1.03,0l.747-.005.747.005q.679,0,1.03,0t.943-.029a7.7,7.7,0,0,0,1.006-.1,3.919,3.919,0,0,0,.7-.181,2.554,2.554,0,0,0,1.426-1.426,3.919,3.919,0,0,0,.181-.7,7.7,7.7,0,0,0,.1-1.006q.024-.591.029-.942t0-1.03q0-.679-.005-.747t.005-.747q.005-.679,0-1.03t-.029-.942a7.7,7.7,0,0,0-.1-1.006,3.844,3.844,0,0,0-.182-.7A2.554,2.554,0,0,0,11.924,1.65a3.919,3.919,0,0,0-.7-.181,7.7,7.7,0,0,0-1.006-.1q-.591-.024-.942-.029t-1.03,0l-.747,0ZM15,7.5q0,2.236-.049,3.1A4.581,4.581,0,0,1,13.74,13.74,4.581,4.581,0,0,1,10.6,14.951Q9.736,15,7.5,15t-3.1-.049A4.581,4.581,0,0,1,1.26,13.74,4.581,4.581,0,0,1,.049,10.6Q0,9.736,0,7.5T.049,4.4A4.581,4.581,0,0,1,1.26,1.26,4.581,4.581,0,0,1,4.4.049Q5.264,0,7.5,0t3.1.049A4.581,4.581,0,0,1,13.74,1.26,4.581,4.581,0,0,1,14.951,4.4Q15,5.264,15,7.5Z" fill="#1b1c1e"/>
</svg>
