<svg id="icon_question-mark" data-name="icon/question-mark" xmlns="http://www.w3.org/2000/svg" width="28" height="28" viewBox="0 0 28 28">
  <path id="Path_1798" data-name="Path 1798" d="M6.563,9.454H9.037a2.487,2.487,0,0,1,2.549-2.776,2.235,2.235,0,0,1,2.46,2.342c0,1.274-.7,1.86-1.808,2.75a4.63,4.63,0,0,0-2.189,3.985l.013.929h2.45v-.712c0-1.439.511-1.86,1.892-2.979,1.141-.929,2.331-1.959,2.331-4.123,0-3.031-2.391-4.494-5.009-4.494-2.486,0-5.22,1.3-5.16,5.08ZM9.491,20.516a1.82,1.82,0,0,0,1.892,1.86,1.873,1.873,0,1,0,0-3.745A1.818,1.818,0,0,0,9.491,20.516Z" transform="translate(2.437 0.624)" fill="#d15b4c"/>
  <rect id="Rectangle_245" data-name="Rectangle 245" width="28" height="28" fill="none"/>
</svg>
