<svg id="icon_warning-standard-line" data-name="icon/warning-standard-line" xmlns="http://www.w3.org/2000/svg" width="28" height="28" viewBox="0 0 28 28">
  <path id="Path_1805" data-name="Path 1805" d="M10.739,14.478A.739.739,0,1,1,10,13.739a.739.739,0,0,1,.739.739Z" transform="translate(4.578 5.222)" fill="#d15b4c"/>
  <path id="Path_1806" data-name="Path 1806" d="M10,12.561a.556.556,0,0,1-.556-.556V5.338a.556.556,0,1,1,1.111,0v6.667a.556.556,0,0,1-.556.556Z" transform="translate(4.578 5.102)" fill="#d15b4c"/>
  <path id="Path_1807" data-name="Path 1807" d="M8.354.946a1.774,1.774,0,0,1,3.131,0l7.7,14.382a1.835,1.835,0,0,1-.034,1.791,1.781,1.781,0,0,1-1.535.886H2.231a1.78,1.78,0,0,1-1.565-.869,1.835,1.835,0,0,1-.043-1.809L8.353.946ZM1.6,15.866a.7.7,0,0,0,.02.69.674.674,0,0,0,.6.324h15.4a.675.675,0,0,0,.581-.336.7.7,0,0,0,.013-.679l-7.7-14.379a.672.672,0,0,0-1.185,0L1.6,15.866Z" transform="translate(4.595 4.994)" fill="#d15b4c"/>
  <rect id="Rectangle_241" data-name="Rectangle 241" width="28" height="28" fill="none"/>
</svg>
